<svg xmlns="http://www.w3.org/2000/svg" xmlns:xlink="http://www.w3.org/1999/xlink" viewBox="0 0 103 72.13"><defs><style>.cls-1{isolation:isolate;}.cls-2{fill:url(#radial-gradient);}.cls-3{opacity:0.5;fill:url(#radial-gradient-2);}.cls-3,.cls-4,.cls-5,.cls-7,.cls-8,.cls-9{mix-blend-mode:overlay;}.cls-4{opacity:0.3;fill:url(#radial-gradient-3);}.cls-5,.cls-9{opacity:0.2;}.cls-5{fill:url(#Degradado_sin_nombre_34);}.cls-6{fill:url(#radial-gradient-4);}.cls-7{fill:url(#radial-gradient-5);}.cls-8{opacity:0.4;fill:url(#radial-gradient-6);}.cls-9{fill:url(#Degradado_sin_nombre_34-2);}</style><radialGradient id="radial-gradient" cx="1347.28" cy="7.79" r="70.49" gradientTransform="matrix(-1, 0, 0, 1, 1385.56, 0)" gradientUnits="userSpaceOnUse"><stop offset="0" stop-color="#bad0d6"/><stop offset="0.2" stop-color="#9bbac2"/><stop offset="1" stop-color="#5d8bb8"/></radialGradient><radialGradient id="radial-gradient-2" cx="430.33" cy="-2165.17" r="8.27" gradientTransform="matrix(0.84, 1.15, 1.62, -1.31, 3181.75, -3320.85)" gradientUnits="userSpaceOnUse"><stop offset="0" stop-color="#fff"/><stop offset="0.1" stop-color="#fff" stop-opacity="0.85"/><stop offset="0.29" stop-color="#fff" stop-opacity="0.59"/><stop offset="0.47" stop-color="#fff" stop-opacity="0.38"/><stop offset="0.63" stop-color="#fff" stop-opacity="0.22"/><stop offset="0.78" stop-color="#fff" stop-opacity="0.1"/><stop offset="0.91" stop-color="#fff" stop-opacity="0.03"/><stop offset="1" stop-color="#fff" stop-opacity="0"/></radialGradient><radialGradient id="radial-gradient-3" cx="454.75" cy="-2152.92" r="4.55" xlink:href="#radial-gradient-2"/><radialGradient id="Degradado_sin_nombre_34" cx="1494.59" cy="28.95" r="4.75" gradientTransform="matrix(-0.71, -0.46, -1.4, 1.83, 1188.86, 678.34)" xlink:href="#radial-gradient-2"/><radialGradient id="radial-gradient-4" cx="1367.81" cy="23.14" r="70.49" gradientTransform="matrix(-1, 0, 0, 1, 1385.56, 0)" gradientUnits="userSpaceOnUse"><stop offset="0" stop-color="#fff"/><stop offset="0.2" stop-color="#d9f7ff"/><stop offset="1" stop-color="#89c0f5"/></radialGradient><radialGradient id="radial-gradient-5" cx="429.63" cy="-2177.49" r="8.27" xlink:href="#radial-gradient-2"/><radialGradient id="radial-gradient-6" cx="454.05" cy="-2165.24" r="4.55" xlink:href="#radial-gradient-2"/><radialGradient id="Degradado_sin_nombre_34-2" cx="1515.32" cy="52.79" r="4.75" gradientTransform="matrix(-0.71, -0.46, -1.4, 1.83, 1216.32, 659.53)" xlink:href="#radial-gradient-2"/></defs><g class="cls-1"><g id="Layer_2" data-name="Layer 2"><g id="OBJECTS"><path class="cls-2" d="M48.92,0A28.4,28.4,0,0,1,76.51,21.7a18.46,18.46,0,1,1,8,35.08H48.92A28.39,28.39,0,0,1,48.92,0Z"/><path class="cls-3" d="M45.28,27.13c7.39-6,10.28-15.13,6.45-20.4S38.79,2.05,31.4,8.05,21.12,23.18,25,28.44,37.89,33.12,45.28,27.13Z"/><path class="cls-4" d="M82.48,34.92c4.06-3.3,5.65-8.32,3.54-11.21s-7.11-2.57-11.17.72S69.2,32.75,71.3,35.64,78.42,38.21,82.48,34.92Z"/><path class="cls-5" d="M91.49,42.1c4.47-4.52,9.09-6.29,10.32-4S100.4,46,95.93,50.57s-9.08,6.28-10.31,3.94S87,46.62,91.49,42.1Z"/><path class="cls-6" d="M28.39,15.35A28.4,28.4,0,0,1,56,37.05a18.46,18.46,0,1,1,8,35.08H28.39a28.39,28.39,0,0,1,0-56.78Z"/><path class="cls-7" d="M24.75,42.48c7.4-6,10.28-15.13,6.45-20.4S18.27,17.4,10.87,23.4.6,38.53,4.43,43.79,17.36,48.47,24.75,42.48Z"/><path class="cls-8" d="M62,50.27C66,47,67.6,42,65.5,39.06s-7.11-2.57-11.18.72S48.68,48.09,50.78,51,57.89,53.56,62,50.27Z"/><path class="cls-9" d="M71,57.45c4.47-4.52,9.08-6.29,10.31-4s-1.4,7.89-5.87,12.42S66.32,72.2,65.1,69.86,66.5,62,71,57.45Z"/></g></g></g></svg>