<svg xmlns="http://www.w3.org/2000/svg" xmlns:xlink="http://www.w3.org/1999/xlink" viewBox="0 0 69.34 69.34"><defs><style>.cls-1{isolation:isolate;}.cls-2{fill:url(#radial-gradient);}.cls-3{fill:#fff;opacity:0.5;}.cls-3,.cls-7,.cls-8{mix-blend-mode:overlay;}.cls-4{fill:url(#radial-gradient-2);}.cls-5{fill:#b0b1b6;}.cls-6{fill:#5d5e61;}.cls-7{fill:url(#radial-gradient-3);}.cls-8{opacity:0.4;fill:url(#Degradado_sin_nombre_34);}</style><radialGradient id="radial-gradient" cx="-1921.5" cy="12.93" r="65.81" gradientTransform="translate(1948.24)" gradientUnits="userSpaceOnUse"><stop offset="0" stop-color="#fcfcfc"/><stop offset="0.16" stop-color="#f1edf5"/><stop offset="1" stop-color="#9fa1a6"/></radialGradient><radialGradient id="radial-gradient-2" cx="73.55" cy="-8.6" r="58.42" gradientUnits="userSpaceOnUse"><stop offset="0" stop-color="#fcfcfc"/><stop offset="0.16" stop-color="#adaab0"/><stop offset="1" stop-color="#6b6d70"/></radialGradient><radialGradient id="radial-gradient-3" cx="173.39" cy="-2407.85" r="9.88" gradientTransform="matrix(1.2, 0.78, 1.04, -1.81, 2317.72, -4457.36)" gradientUnits="userSpaceOnUse"><stop offset="0" stop-color="#fff"/><stop offset="0.1" stop-color="#fff" stop-opacity="0.85"/><stop offset="0.29" stop-color="#fff" stop-opacity="0.59"/><stop offset="0.47" stop-color="#fff" stop-opacity="0.38"/><stop offset="0.63" stop-color="#fff" stop-opacity="0.22"/><stop offset="0.78" stop-color="#fff" stop-opacity="0.1"/><stop offset="0.91" stop-color="#fff" stop-opacity="0.03"/><stop offset="1" stop-color="#fff" stop-opacity="0"/></radialGradient><radialGradient id="Degradado_sin_nombre_34" cx="-4413.15" cy="4184.31" r="9.53" gradientTransform="matrix(1.46, -0.67, 0.02, -0.76, 6409.57, 288.72)" xlink:href="#radial-gradient-3"/></defs><g class="cls-1"><g id="Layer_2" data-name="Layer 2"><g id="OBJECTS"><path class="cls-2" d="M69.34,34.67A34.67,34.67,0,1,1,34.67,0,34.67,34.67,0,0,1,69.34,34.67Z"/><path class="cls-3" d="M29.65,24A34.67,34.67,0,0,0,59.92,58.41a34.12,34.12,0,0,0,2.34-2.76A34.64,34.64,0,0,0,38.67.7,34.51,34.51,0,0,0,29.65,24Z"/><path class="cls-4" d="M39,.28A34.67,34.67,0,0,0,60.31,58,34.66,34.66,0,0,0,39,.28Z"/><path class="cls-5" d="M10.44,40.8c3.26-.29,5.59-4,5.2-8.25s-3.33-7.49-6.59-7.19-5.58,4-5.2,8.25S7.19,41.09,10.44,40.8Z"/><path class="cls-5" d="M7.62,43.9c-1.95,1-2.44,3.93-1.1,6.48s4,3.8,6,2.78,2.44-3.93,1.1-6.48S9.57,42.88,7.62,43.9Z"/><path class="cls-5" d="M15.35,40.82c-1.15.61-1.44,2.32-.65,3.83s2.37,2.24,3.52,1.64,1.44-2.32.65-3.83S16.51,40.22,15.35,40.82Z"/><path class="cls-6" d="M66.69,35.92c-.6-4.24-3.71-7.3-6.95-6.85S54.36,33.34,55,37.58s3.71,7.31,6.95,6.85S67.29,40.16,66.69,35.92Z"/><path class="cls-6" d="M62.41,25.83c1.89-1.12,2.24-4,.77-6.53s-4.2-3.58-6.1-2.46-2.24,4-.77,6.52S60.51,27,62.41,25.83Z"/><path class="cls-6" d="M55.29,25.44c-.86-1.47-2.47-2.12-3.6-1.46s-1.32,2.39-.45,3.86,2.48,2.12,3.6,1.46S56.16,26.91,55.29,25.44Z"/><path class="cls-7" d="M29.49,31.4c5.67-9.85,5-21.27-1.53-25.51S11.53,6.21,5.84,16.05s-5,21.27,1.54,25.5S23.81,41.24,29.49,31.4Z"/><path class="cls-8" d="M65.23,49.18c.11-4-6-4.4-13.73-.88s-14,9.62-14.15,13.63,6,4.4,13.73.88S65.1,53.18,65.23,49.18Z"/></g></g></g></svg>