<svg xmlns="http://www.w3.org/2000/svg" xmlns:xlink="http://www.w3.org/1999/xlink" viewBox="0 0 68.51 66.09"><defs><style>.cls-1{isolation:isolate;}.cls-2{fill:url(#radial-gradient);}.cls-3,.cls-6{opacity:0.6;}.cls-3,.cls-4,.cls-6,.cls-7{mix-blend-mode:overlay;}.cls-3{fill:url(#radial-gradient-2);}.cls-4,.cls-7{opacity:0.3;}.cls-4{fill:url(#Degradado_sin_nombre_34);}.cls-5{fill:url(#radial-gradient-3);}.cls-6{fill:url(#radial-gradient-4);}.cls-7{fill:url(#Degradado_sin_nombre_34-2);}</style><radialGradient id="radial-gradient" cx="1557.42" cy="33.17" r="35.05" gradientTransform="matrix(-1, 0, 0, 1, 1614.87, 0)" gradientUnits="userSpaceOnUse"><stop offset="0" stop-color="#b0ffee"/><stop offset="0.19" stop-color="#66afff"/><stop offset="1" stop-color="#446cf5"/></radialGradient><radialGradient id="radial-gradient-2" cx="-181" cy="-2600.93" r="6.08" gradientTransform="matrix(0.84, 1.15, 1.62, -1.31, 4419.18, -3172.21)" gradientUnits="userSpaceOnUse"><stop offset="0" stop-color="#fff"/><stop offset="0.1" stop-color="#fff" stop-opacity="0.85"/><stop offset="0.29" stop-color="#fff" stop-opacity="0.59"/><stop offset="0.47" stop-color="#fff" stop-opacity="0.38"/><stop offset="0.63" stop-color="#fff" stop-opacity="0.22"/><stop offset="0.78" stop-color="#fff" stop-opacity="0.1"/><stop offset="0.91" stop-color="#fff" stop-opacity="0.03"/><stop offset="1" stop-color="#fff" stop-opacity="0"/></radialGradient><radialGradient id="Degradado_sin_nombre_34" cx="1100.15" cy="-215.26" r="4.34" gradientTransform="matrix(-0.65, -0.53, 1.32, -1.89, 1045.76, 196.4)" xlink:href="#radial-gradient-2"/><radialGradient id="radial-gradient-3" cx="15.45" cy="51.5" r="48.99" gradientTransform="matrix(1, 0, 0, 1, 0, 0)" xlink:href="#radial-gradient"/><radialGradient id="radial-gradient-4" cx="510.72" cy="-2006.92" r="8.5" gradientTransform="matrix(-0.84, 1.15, -1.62, -1.31, -2804.31, -3172.21)" xlink:href="#radial-gradient-2"/><radialGradient id="Degradado_sin_nombre_34-2" cx="272.85" cy="1543.31" r="6.06" gradientTransform="matrix(0.65, -0.53, -1.32, -1.89, 1895.72, 3084.3)" xlink:href="#radial-gradient-2"/></defs><g class="cls-1"><g id="Layer_2" data-name="Layer 2"><g id="OBJECTS"><path class="cls-2" d="M36.23,27a16.14,16.14,0,0,0,32.28,0c0-8.91-16.14-27-16.14-27S36.23,18.09,36.23,27Z"/><path class="cls-3" d="M62.52,40c5.43-4.41,7.57-11.12,4.74-15s-9.51-3.44-14.94,1-7.56,11.13-4.74,15S57.09,44.41,62.52,40Z"/><path class="cls-4" d="M41.57,14.2c-2.7,5.13-3,9.63-.59,10.06s6.48-3.4,9.18-8.53,3-9.63.59-10.06S44.27,9.07,41.57,14.2Z"/><path class="cls-5" d="M45.11,42.89A22.56,22.56,0,0,1,0,42.89C0,30.43,22.55,5.15,22.55,5.15S45.11,30.43,45.11,42.89Z"/><path class="cls-6" d="M8.37,61C.78,54.88-2.2,45.5,1.75,40.08S15,35.26,22.63,41.43,33.2,57,29.25,62.39,16,67.21,8.37,61Z"/><path class="cls-7" d="M37.65,25c3.77,7.17,4.14,13.46.82,14s-9-4.74-12.83-11.92-4.13-13.46-.82-14S33.87,17.83,37.65,25Z"/></g></g></g></svg>