<svg xmlns="http://www.w3.org/2000/svg" xmlns:xlink="http://www.w3.org/1999/xlink" viewBox="0 0 84.82 64.24"><defs><style>.cls-1{isolation:isolate;}.cls-2{fill:url(#radial-gradient);}.cls-3,.cls-4,.cls-5,.cls-7,.cls-8,.cls-9{mix-blend-mode:overlay;}.cls-3{fill:url(#radial-gradient-2);}.cls-4,.cls-8{opacity:0.4;}.cls-4{fill:url(#radial-gradient-3);}.cls-5,.cls-9{opacity:0.2;}.cls-5{fill:url(#Degradado_sin_nombre_34);}.cls-6{fill:url(#radial-gradient-4);}.cls-7{fill:url(#radial-gradient-5);}.cls-8{fill:url(#radial-gradient-6);}.cls-9{fill:url(#Degradado_sin_nombre_34-2);}</style><radialGradient id="radial-gradient" cx="-816.64" cy="4.43" r="40.1" gradientTransform="translate(891.36)" gradientUnits="userSpaceOnUse"><stop offset="0" stop-color="#fff"/><stop offset="0.2" stop-color="#d9f7ff"/><stop offset="1" stop-color="#89c0f5"/></radialGradient><radialGradient id="radial-gradient-2" cx="1047.03" cy="-1576.84" r="4.71" gradientTransform="matrix(-0.84, 1.15, -1.62, -1.31, -1598.92, -3267.6)" gradientUnits="userSpaceOnUse"><stop offset="0" stop-color="#fff"/><stop offset="0.1" stop-color="#fff" stop-opacity="0.85"/><stop offset="0.29" stop-color="#fff" stop-opacity="0.59"/><stop offset="0.47" stop-color="#fff" stop-opacity="0.38"/><stop offset="0.63" stop-color="#fff" stop-opacity="0.22"/><stop offset="0.78" stop-color="#fff" stop-opacity="0.1"/><stop offset="0.91" stop-color="#fff" stop-opacity="0.03"/><stop offset="1" stop-color="#fff" stop-opacity="0"/></radialGradient><radialGradient id="radial-gradient-3" cx="1060.92" cy="-1569.86" r="2.59" xlink:href="#radial-gradient-2"/><radialGradient id="Degradado_sin_nombre_34" cx="-948.13" cy="-358.42" r="2.7" gradientTransform="matrix(0.71, -0.46, 1.4, 1.83, 1213.73, 248.13)" xlink:href="#radial-gradient-2"/><radialGradient id="radial-gradient-4" cx="820.36" cy="29.67" r="49.74" gradientTransform="matrix(-1, 0, 0, 1, 832.88, 0)" xlink:href="#radial-gradient"/><radialGradient id="radial-gradient-5" cx="337.74" cy="-2220.45" r="5.84" gradientTransform="matrix(0.84, 1.15, 1.62, -1.31, 3323.16, -3267.6)" xlink:href="#radial-gradient-2"/><radialGradient id="radial-gradient-6" cx="354.97" cy="-2211.81" r="3.21" gradientTransform="matrix(0.84, 1.15, 1.62, -1.31, 3323.16, -3267.6)" xlink:href="#radial-gradient-2"/><radialGradient id="Degradado_sin_nombre_34-2" cx="924.25" cy="24.06" r="3.35" gradientTransform="matrix(-0.71, -0.46, -1.4, 1.83, 737.5, 436.42)" xlink:href="#radial-gradient-2"/></defs><g class="cls-1"><g id="Layer_2" data-name="Layer 2"><g id="OBJECTS"><path class="cls-2" d="M68.66,0A16.14,16.14,0,0,0,53,12.34a10.5,10.5,0,1,0-4.57,20H68.66a16.15,16.15,0,1,0,0-32.3Z"/><path class="cls-3" d="M70.73,15.44C66.53,12,64.88,6.83,67.07,3.83s7.35-2.66,11.56.75,5.85,8.61,3.67,11.6S74.94,18.84,70.73,15.44Z"/><path class="cls-4" d="M49.57,19.87c-2.31-1.88-3.21-4.73-2-6.38s4.05-1.47,6.36.41,3.21,4.73,2,6.38S51.88,21.74,49.57,19.87Z"/><path class="cls-5" d="M44.44,24c-2.54-2.57-5.17-3.57-5.87-2.24s.8,4.49,3.34,7.06,5.17,3.58,5.87,2.25S47,26.52,44.44,24Z"/><path class="cls-6" d="M20,24.17A20,20,0,0,1,39.5,39.48a13,13,0,1,1,5.66,24.76H20a20,20,0,0,1,0-40.07Z"/><path class="cls-7" d="M17.46,43.32c5.22-4.24,7.26-10.68,4.56-14.4s-9.13-3.3-14.35.93S.42,40.53,3.12,44.24,12.25,47.55,17.46,43.32Z"/><path class="cls-8" d="M43.71,48.81c2.87-2.32,4-5.87,2.5-7.91s-5-1.81-7.88.51-4,5.87-2.5,7.91S40.85,51.14,43.71,48.81Z"/><path class="cls-9" d="M50.07,53.88c3.16-3.19,6.41-4.44,7.28-2.79s-1,5.57-4.14,8.76-6.41,4.44-7.28,2.79S46.92,57.07,50.07,53.88Z"/></g></g></g></svg>