<svg xmlns="http://www.w3.org/2000/svg" xmlns:xlink="http://www.w3.org/1999/xlink" viewBox="0 0 53.34 63.49"><defs><style>.cls-1{isolation:isolate;}.cls-2{fill:url(#radial-gradient);}.cls-3,.cls-4{mix-blend-mode:overlay;}.cls-3{fill:url(#radial-gradient-2);}.cls-4{opacity:0.4;fill:url(#Degradado_sin_nombre_34);}.cls-5{fill:url(#radial-gradient-3);}.cls-6{fill:url(#radial-gradient-4);}.cls-7{fill:url(#radial-gradient-5);}.cls-8{fill:url(#radial-gradient-6);}.cls-9{fill:url(#radial-gradient-7);}.cls-10{fill:url(#radial-gradient-8);}.cls-11{fill:url(#radial-gradient-9);}.cls-12{fill:url(#radial-gradient-10);}.cls-13{fill:url(#linear-gradient);}.cls-14{fill:url(#radial-gradient-11);}</style><radialGradient id="radial-gradient" cx="350.04" cy="23.66" r="27.55" gradientTransform="matrix(-1, 0, 0, 1, 383.64, 0)" gradientUnits="userSpaceOnUse"><stop offset="0" stop-color="#fff8c7"/><stop offset="0.16" stop-color="#ffe436"/><stop offset="1" stop-color="#fe761c"/></radialGradient><radialGradient id="radial-gradient-2" cx="1536.69" cy="-2020.44" r="4.14" gradientTransform="matrix(-0.84, 1.15, -1.62, -1.31, -1944.74, -4398.27)" gradientUnits="userSpaceOnUse"><stop offset="0" stop-color="#fff"/><stop offset="0.1" stop-color="#fff" stop-opacity="0.85"/><stop offset="0.29" stop-color="#fff" stop-opacity="0.59"/><stop offset="0.47" stop-color="#fff" stop-opacity="0.38"/><stop offset="0.63" stop-color="#fff" stop-opacity="0.22"/><stop offset="0.78" stop-color="#fff" stop-opacity="0.1"/><stop offset="0.91" stop-color="#fff" stop-opacity="0.03"/><stop offset="1" stop-color="#fff" stop-opacity="0"/></radialGradient><radialGradient id="Degradado_sin_nombre_34" cx="-2630.19" cy="2303.65" r="3.99" gradientTransform="matrix(-1.17, -1.1, 0.22, -0.73, -3571.07, -1176.94)" xlink:href="#radial-gradient-2"/><radialGradient id="radial-gradient-3" cx="30.6" cy="10.59" r="4.79" gradientTransform="matrix(1, 0, 0, 1, 0, 0)" xlink:href="#radial-gradient"/><radialGradient id="radial-gradient-4" cx="380.04" cy="-453.35" r="4.79" gradientTransform="translate(66.66 606.15) rotate(-45)" xlink:href="#radial-gradient"/><radialGradient id="radial-gradient-5" cx="955.11" cy="-534.49" r="4.79" gradientTransform="translate(542.6 987.55) rotate(-90)" xlink:href="#radial-gradient"/><radialGradient id="radial-gradient-6" cx="1419.21" cy="-185.05" r="4.79" gradientTransform="translate(1148.75 920.88) rotate(-135)" xlink:href="#radial-gradient"/><radialGradient id="radial-gradient-7" cx="1500.18" cy="390.02" r="4.79" gradientTransform="translate(1530.14 444.95) rotate(180)" xlink:href="#radial-gradient"/><radialGradient id="radial-gradient-8" cx="1150.91" cy="854.12" r="4.79" gradientTransform="translate(1463.48 -161.2) rotate(135)" xlink:href="#radial-gradient"/><radialGradient id="radial-gradient-9" cx="575.68" cy="935.1" r="4.79" gradientTransform="translate(987.55 -542.6) rotate(90)" xlink:href="#radial-gradient"/><radialGradient id="radial-gradient-10" cx="111.74" cy="585.82" r="4.79" gradientTransform="translate(381.41 -475.94) rotate(45)" xlink:href="#radial-gradient"/><linearGradient id="linear-gradient" x1="13.06" y1="0.93" x2="13.06" y2="27.36" gradientUnits="userSpaceOnUse"><stop offset="0" stop-color="#ed3c28"/><stop offset="1" stop-color="#bf160a"/></linearGradient><radialGradient id="radial-gradient-11" cx="9.41" cy="58.01" r="20.31" gradientUnits="userSpaceOnUse"><stop offset="0" stop-color="#ff949e"/><stop offset="0.2" stop-color="#ed3c28"/><stop offset="1" stop-color="#bf160a"/></radialGradient></defs><g class="cls-1"><g id="Layer_2" data-name="Layer 2"><g id="OBJECTS"><path class="cls-2" d="M15.77,32.76A14.51,14.51,0,1,0,30.28,18.25,14.51,14.51,0,0,0,15.77,32.76Z"/><path class="cls-3" d="M32.49,31.27c-3.69-3-5.14-7.57-3.22-10.2s6.46-2.34,10.16.66,5.14,7.56,3.22,10.19S36.19,34.26,32.49,31.27Z"/><path class="cls-4" d="M17.45,36c.49-1.61,3-.94,5.57,1.48s4.27,5.69,3.79,7.3-3,.94-5.56-1.49S17,37.57,17.45,36Z"/><path class="cls-5" d="M32,14a1.76,1.76,0,0,1-1.76,1.76h0A1.76,1.76,0,0,1,28.52,14v-2.5A1.76,1.76,0,0,1,30.28,9.7h0A1.76,1.76,0,0,1,32,11.46Z"/><path class="cls-6" d="M18.23,18.22a1.76,1.76,0,0,1,0,2.49h0a1.76,1.76,0,0,1-2.49,0L14,18.94a1.77,1.77,0,0,1,0-2.49h0a1.77,1.77,0,0,1,2.49,0Z"/><path class="cls-7" d="M11.48,31a1.76,1.76,0,0,1,1.76,1.76h0a1.76,1.76,0,0,1-1.76,1.76H9a1.76,1.76,0,0,1-1.76-1.76h0A1.76,1.76,0,0,1,9,31Z"/><path class="cls-8" d="M15.74,44.81a1.76,1.76,0,0,1,2.49,0h0a1.76,1.76,0,0,1,0,2.49l-1.77,1.77a1.77,1.77,0,0,1-2.49,0h0a1.77,1.77,0,0,1,0-2.49Z"/><path class="cls-9" d="M28.52,51.56a1.76,1.76,0,0,1,1.76-1.76h0A1.76,1.76,0,0,1,32,51.56v2.5a1.76,1.76,0,0,1-1.76,1.76h0a1.76,1.76,0,0,1-1.76-1.76Z"/><path class="cls-10" d="M42.33,47.3a1.76,1.76,0,0,1,0-2.49h0a1.76,1.76,0,0,1,2.49,0l1.77,1.77a1.77,1.77,0,0,1,0,2.49h0a1.77,1.77,0,0,1-2.49,0Z"/><path class="cls-11" d="M49.08,34.52a1.76,1.76,0,0,1-1.76-1.76h0A1.76,1.76,0,0,1,49.08,31h2.5a1.76,1.76,0,0,1,1.76,1.76h0a1.76,1.76,0,0,1-1.76,1.76Z"/><path class="cls-12" d="M44.82,20.71a1.76,1.76,0,0,1-2.49,0h0a1.76,1.76,0,0,1,0-2.49l1.77-1.77a1.77,1.77,0,0,1,2.49,0h0a1.77,1.77,0,0,1,0,2.49Z"/><path class="cls-13" d="M6.72,45.53a6.34,6.34,0,1,0,12.67,0V6.33a6.34,6.34,0,0,0-12.67,0Z"/><path class="cls-14" d="M26.11,50.44a13.06,13.06,0,1,1-13-13.06A13,13,0,0,1,26.11,50.44Z"/></g></g></g></svg>