<svg xmlns="http://www.w3.org/2000/svg" xmlns:xlink="http://www.w3.org/1999/xlink" viewBox="0 0 103 88.78"><defs><style>.cls-1{isolation:isolate;}.cls-2{fill:url(#radial-gradient);}.cls-3{opacity:0.5;fill:url(#radial-gradient-2);}.cls-11,.cls-13,.cls-15,.cls-17,.cls-19,.cls-3,.cls-4,.cls-5,.cls-7,.cls-8,.cls-9{mix-blend-mode:overlay;}.cls-4{opacity:0.3;fill:url(#radial-gradient-3);}.cls-5,.cls-9{opacity:0.2;}.cls-5{fill:url(#Degradado_sin_nombre_34);}.cls-6{fill:url(#radial-gradient-4);}.cls-7{fill:url(#radial-gradient-5);}.cls-8{opacity:0.4;fill:url(#radial-gradient-6);}.cls-9{fill:url(#Degradado_sin_nombre_34-2);}.cls-10{fill:url(#radial-gradient-7);}.cls-11{fill:url(#radial-gradient-8);}.cls-12{fill:url(#radial-gradient-9);}.cls-13{fill:url(#radial-gradient-10);}.cls-14{fill:url(#radial-gradient-11);}.cls-15{fill:url(#radial-gradient-12);}.cls-16{fill:url(#radial-gradient-13);}.cls-17{fill:url(#radial-gradient-14);}.cls-18{fill:url(#radial-gradient-15);}.cls-19{fill:url(#radial-gradient-16);}</style><radialGradient id="radial-gradient" cx="1080.04" cy="7.79" r="70.49" gradientTransform="matrix(-1, 0, 0, 1, 1118.31, 0)" gradientUnits="userSpaceOnUse"><stop offset="0" stop-color="#bad0d6"/><stop offset="0.2" stop-color="#9bbac2"/><stop offset="1" stop-color="#5d8bb8"/></radialGradient><radialGradient id="radial-gradient-2" cx="414.09" cy="-2250.4" r="8.27" gradientTransform="matrix(0.84, 1.15, 1.62, -1.31, 3333.34, -3413.98)" gradientUnits="userSpaceOnUse"><stop offset="0" stop-color="#fff"/><stop offset="0.1" stop-color="#fff" stop-opacity="0.85"/><stop offset="0.29" stop-color="#fff" stop-opacity="0.59"/><stop offset="0.47" stop-color="#fff" stop-opacity="0.38"/><stop offset="0.63" stop-color="#fff" stop-opacity="0.22"/><stop offset="0.78" stop-color="#fff" stop-opacity="0.1"/><stop offset="0.91" stop-color="#fff" stop-opacity="0.03"/><stop offset="1" stop-color="#fff" stop-opacity="0"/></radialGradient><radialGradient id="radial-gradient-3" cx="438.51" cy="-2238.15" r="4.55" xlink:href="#radial-gradient-2"/><radialGradient id="Degradado_sin_nombre_34" cx="1186.5" cy="29.76" r="4.75" gradientTransform="matrix(-0.71, -0.46, -1.4, 1.83, 972.59, 535.65)" xlink:href="#radial-gradient-2"/><radialGradient id="radial-gradient-4" cx="1100.56" cy="23.14" r="70.49" gradientTransform="matrix(-1, 0, 0, 1, 1118.31, 0)" gradientUnits="userSpaceOnUse"><stop offset="0" stop-color="#fff"/><stop offset="0.2" stop-color="#d9f7ff"/><stop offset="1" stop-color="#89c0f5"/></radialGradient><radialGradient id="radial-gradient-5" cx="413.38" cy="-2262.72" r="8.27" xlink:href="#radial-gradient-2"/><radialGradient id="radial-gradient-6" cx="437.8" cy="-2250.46" r="4.55" xlink:href="#radial-gradient-2"/><radialGradient id="Degradado_sin_nombre_34-2" cx="1207.22" cy="53.6" r="4.75" gradientTransform="matrix(-0.71, -0.46, -1.4, 1.83, 1000.05, 516.84)" xlink:href="#radial-gradient-2"/><radialGradient id="radial-gradient-7" cx="-295.98" cy="-54.86" r="9.89" gradientTransform="translate(249.52 281.29) rotate(30)" gradientUnits="userSpaceOnUse"><stop offset="0" stop-color="#d4f6ff"/><stop offset="0.2" stop-color="#d9f7ff"/><stop offset="1" stop-color="#89c0f5"/></radialGradient><radialGradient id="radial-gradient-8" cx="982.58" cy="-1695" r="1.55" gradientTransform="matrix(-1.3, 0.58, -0.75, -1.95, 38.59, -3782.63)" xlink:href="#radial-gradient-2"/><radialGradient id="radial-gradient-9" cx="-276.37" cy="-66.19" r="9.89" xlink:href="#radial-gradient-7"/><radialGradient id="radial-gradient-10" cx="967.73" cy="-1699.42" r="1.55" gradientTransform="matrix(-1.3, 0.58, -0.75, -1.95, 38.59, -3782.63)" xlink:href="#radial-gradient-2"/><radialGradient id="radial-gradient-11" cx="-256.75" cy="-77.51" r="9.89" xlink:href="#radial-gradient-7"/><radialGradient id="radial-gradient-12" cx="952.88" cy="-1703.84" r="1.55" gradientTransform="matrix(-1.3, 0.58, -0.75, -1.95, 38.59, -3782.63)" xlink:href="#radial-gradient-2"/><radialGradient id="radial-gradient-13" cx="-291.28" cy="-71.68" r="14.06" xlink:href="#radial-gradient-7"/><radialGradient id="radial-gradient-14" cx="971.12" cy="-1692" r="2.2" gradientTransform="matrix(-1.3, 0.58, -0.75, -1.95, 38.59, -3782.63)" xlink:href="#radial-gradient-2"/><radialGradient id="radial-gradient-15" cx="-270.11" cy="-83.9" r="14.06" xlink:href="#radial-gradient-7"/><radialGradient id="radial-gradient-16" cx="955.1" cy="-1696.77" r="2.2" gradientTransform="matrix(-1.3, 0.58, -0.75, -1.95, 38.59, -3782.63)" xlink:href="#radial-gradient-2"/></defs><g class="cls-1"><g id="Layer_2" data-name="Layer 2"><g id="OBJECTS"><path class="cls-2" d="M48.92,0A28.4,28.4,0,0,1,76.51,21.7a18.46,18.46,0,1,1,8,35.08H48.92A28.39,28.39,0,0,1,48.92,0Z"/><path class="cls-3" d="M45.28,27.13c7.39-6,10.28-15.13,6.45-20.4S38.79,2.05,31.4,8.05,21.12,23.18,25,28.44,37.89,33.12,45.28,27.13Z"/><path class="cls-4" d="M82.48,34.92c4.06-3.3,5.65-8.32,3.54-11.21s-7.11-2.57-11.17.72S69.2,32.75,71.3,35.64,78.42,38.21,82.48,34.92Z"/><path class="cls-5" d="M91.49,42.1c4.47-4.52,9.09-6.29,10.32-4s-1.41,7.9-5.88,12.42-9.08,6.28-10.31,3.94S87,46.62,91.49,42.1Z"/><path class="cls-6" d="M28.39,15.35A28.4,28.4,0,0,1,56,37.05a18.46,18.46,0,1,1,8,35.08H28.39a28.39,28.39,0,0,1,0-56.78Z"/><path class="cls-7" d="M24.75,42.48c7.4-6,10.28-15.13,6.45-20.4S18.27,17.4,10.87,23.4.6,38.53,4.43,43.79,17.36,48.47,24.75,42.48Z"/><path class="cls-8" d="M62,50.27C66,47,67.6,42,65.5,39.06s-7.11-2.57-11.18.72S48.68,48.09,50.78,51,57.89,53.56,62,50.27Z"/><path class="cls-9" d="M71,57.45c4.47-4.52,9.08-6.29,10.31-4s-1.4,7.89-5.87,12.42S66.32,72.2,65.1,69.86,66.5,62,71,57.45Z"/><path class="cls-10" d="M26.14,86.73A4.11,4.11,0,0,1,19,82.62c1.13-2,8.15-5.91,8.15-5.91S27.27,84.76,26.14,86.73Z"/><path class="cls-11" d="M19.14,86.05c-.64-1.67-.25-3.42.86-3.92s2.54.45,3.18,2.12.25,3.42-.87,3.91S19.78,87.71,19.14,86.05Z"/><path class="cls-12" d="M48.79,86.73a4.11,4.11,0,0,1-7.12-4.11c1.13-2,8.15-5.91,8.15-5.91S49.92,84.76,48.79,86.73Z"/><path class="cls-13" d="M41.79,86.05c-.64-1.67-.25-3.42.86-3.92s2.54.45,3.18,2.12.25,3.42-.87,3.91S42.42,87.71,41.79,86.05Z"/><path class="cls-14" d="M71.44,86.73a4.11,4.11,0,0,1-7.12-4.11c1.13-2,8.15-5.91,8.15-5.91S72.57,84.76,71.44,86.73Z"/><path class="cls-15" d="M64.44,86.05c-.64-1.67-.25-3.42.86-3.92s2.54.45,3.18,2.12.25,3.42-.87,3.91S65.07,87.71,64.44,86.05Z"/><path class="cls-16" d="M40.94,74.91a5.85,5.85,0,0,1-10.13-5.84c1.62-2.8,11.6-8.4,11.6-8.4S42.55,72.12,40.94,74.91Z"/><path class="cls-17" d="M31,73.94c-.9-2.36-.35-4.85,1.23-5.56s3.61.64,4.52,3,.35,4.86-1.23,5.56S31.89,76.31,31,73.94Z"/><path class="cls-18" d="M65.37,74.91a5.84,5.84,0,0,1-10.12-5.84c1.62-2.8,11.6-8.4,11.6-8.4S67,72.12,65.37,74.91Z"/><path class="cls-19" d="M55.42,73.94c-.9-2.36-.35-4.85,1.23-5.56s3.61.64,4.52,3,.35,4.86-1.23,5.56S56.33,76.31,55.42,73.94Z"/></g></g></g></svg>