<svg xmlns="http://www.w3.org/2000/svg" xmlns:xlink="http://www.w3.org/1999/xlink" viewBox="0 0 84.19 74.94"><defs><style>.cls-1{isolation:isolate;}.cls-2{fill:url(#radial-gradient);}.cls-15,.cls-16,.cls-17,.cls-20,.cls-21,.cls-22,.cls-3,.cls-4{mix-blend-mode:overlay;}.cls-3{fill:url(#radial-gradient-2);}.cls-16,.cls-21,.cls-4{opacity:0.4;}.cls-4{fill:url(#Degradado_sin_nombre_34);}.cls-5{fill:url(#radial-gradient-3);}.cls-6{fill:url(#radial-gradient-4);}.cls-7{fill:url(#radial-gradient-5);}.cls-8{fill:url(#radial-gradient-6);}.cls-9{fill:url(#radial-gradient-7);}.cls-10{fill:url(#radial-gradient-8);}.cls-11{fill:url(#radial-gradient-9);}.cls-12{fill:url(#radial-gradient-10);}.cls-13{fill:url(#radial-gradient-11);}.cls-14{fill:url(#radial-gradient-12);}.cls-15{fill:url(#radial-gradient-13);}.cls-16{fill:url(#radial-gradient-14);}.cls-17,.cls-22{opacity:0.2;}.cls-17{fill:url(#Degradado_sin_nombre_34-2);}.cls-18{fill:url(#radial-gradient-15);}.cls-19{fill:url(#radial-gradient-16);}.cls-20{fill:url(#radial-gradient-17);}.cls-21{fill:url(#radial-gradient-18);}.cls-22{fill:url(#Degradado_sin_nombre_34-3);}</style><radialGradient id="radial-gradient" cx="-670.12" cy="22.68" r="44.76" gradientTransform="matrix(-1, 0, 0, 1, -627.26, 0)" gradientUnits="userSpaceOnUse"><stop offset="0" stop-color="#fff8c7"/><stop offset="0.16" stop-color="#ffe436"/><stop offset="1" stop-color="#fe761c"/></radialGradient><radialGradient id="radial-gradient-2" cx="610.13" cy="-1766.46" r="6.72" gradientTransform="matrix(-0.84, 1.15, -1.62, -1.31, -2300.46, -2995.21)" gradientUnits="userSpaceOnUse"><stop offset="0" stop-color="#fff"/><stop offset="0.1" stop-color="#fff" stop-opacity="0.85"/><stop offset="0.29" stop-color="#fff" stop-opacity="0.59"/><stop offset="0.47" stop-color="#fff" stop-opacity="0.38"/><stop offset="0.63" stop-color="#fff" stop-opacity="0.22"/><stop offset="0.78" stop-color="#fff" stop-opacity="0.1"/><stop offset="0.91" stop-color="#fff" stop-opacity="0.03"/><stop offset="1" stop-color="#fff" stop-opacity="0"/></radialGradient><radialGradient id="Degradado_sin_nombre_34" cx="-3402.59" cy="3535.52" r="6.48" gradientTransform="matrix(-1.17, -1.1, 0.22, -0.73, -4747.47, -1120.5)" xlink:href="#radial-gradient-2"/><radialGradient id="radial-gradient-3" cx="37.99" cy="1.44" r="7.79" gradientTransform="matrix(1, 0, 0, 1, 0, 0)" xlink:href="#radial-gradient"/><radialGradient id="radial-gradient-4" cx="484.68" cy="2.47" r="7.79" gradientTransform="translate(-332.1 352.59) rotate(-45)" xlink:href="#radial-gradient"/><radialGradient id="radial-gradient-5" cx="799.71" cy="318.86" r="7.79" gradientTransform="translate(-317.41 836.66) rotate(-90)" xlink:href="#radial-gradient"/><radialGradient id="radial-gradient-6" cx="798.85" cy="765.54" r="7.79" gradientTransform="translate(35.18 1168.76) rotate(-135)" xlink:href="#radial-gradient"/><radialGradient id="radial-gradient-7" cx="482.3" cy="1080.58" r="7.79" gradientTransform="translate(519.24 1154.07) rotate(180)" xlink:href="#radial-gradient"/><radialGradient id="radial-gradient-8" cx="35.78" cy="1079.72" r="7.79" gradientTransform="translate(851.34 801.48) rotate(135)" xlink:href="#radial-gradient"/><radialGradient id="radial-gradient-9" cx="-279.43" cy="763.17" r="7.79" gradientTransform="translate(836.66 317.42) rotate(90)" xlink:href="#radial-gradient"/><radialGradient id="radial-gradient-10" cx="-278.4" cy="316.65" r="7.79" gradientTransform="translate(484.07 -14.68) rotate(45)" xlink:href="#radial-gradient"/><radialGradient id="radial-gradient-11" cx="821.53" cy="46.78" r="40.51" gradientTransform="matrix(-1, 0, 0, 1, 832.26, 0)" gradientUnits="userSpaceOnUse"><stop offset="0" stop-color="#fff"/><stop offset="0.2" stop-color="#d9f7ff"/><stop offset="1" stop-color="#89c0f5"/></radialGradient><radialGradient id="radial-gradient-12" cx="23.85" cy="46.49" r="34.6" gradientUnits="userSpaceOnUse"><stop offset="0" stop-color="#ffe436"/><stop offset="0.08" stop-color="#ffcf31" stop-opacity="0.81"/><stop offset="0.18" stop-color="#ffb72b" stop-opacity="0.6"/><stop offset="0.28" stop-color="#fea327" stop-opacity="0.41"/><stop offset="0.38" stop-color="#fe9323" stop-opacity="0.26"/><stop offset="0.48" stop-color="#fe8620" stop-opacity="0.15"/><stop offset="0.58" stop-color="#fe7d1e" stop-opacity="0.07"/><stop offset="0.68" stop-color="#fe781c" stop-opacity="0.02"/><stop offset="0.77" stop-color="#fe761c" stop-opacity="0"/></radialGradient><radialGradient id="radial-gradient-13" cx="281.26" cy="-2074.63" r="4.75" gradientTransform="matrix(0.84, 1.15, 1.62, -1.31, 3132.72, -2995.21)" xlink:href="#radial-gradient-2"/><radialGradient id="radial-gradient-14" cx="295.3" cy="-2067.59" r="2.61" gradientTransform="matrix(0.84, 1.15, 1.62, -1.31, 3132.72, -2995.21)" xlink:href="#radial-gradient-2"/><radialGradient id="Degradado_sin_nombre_34-2" cx="954.2" cy="9.35" r="2.73" gradientTransform="matrix(-0.71, -0.46, -1.4, 1.83, 728.99, 489.16)" xlink:href="#radial-gradient-2"/><radialGradient id="radial-gradient-15" cx="-815.26" cy="27.06" r="32.13" gradientTransform="translate(891.36)" xlink:href="#radial-gradient-11"/><radialGradient id="radial-gradient-16" cx="44.85" cy="37.15" r="43.07" xlink:href="#radial-gradient-12"/><radialGradient id="radial-gradient-17" cx="993.56" cy="-1432.7" r="3.77" gradientTransform="matrix(-0.84, 1.15, -1.62, -1.31, -1409.1, -2995.21)" xlink:href="#radial-gradient-2"/><radialGradient id="radial-gradient-18" cx="1004.69" cy="-1427.12" r="2.07" gradientTransform="matrix(-0.84, 1.15, -1.62, -1.31, -1409.1, -2995.21)" xlink:href="#radial-gradient-2"/><radialGradient id="Degradado_sin_nombre_34-3" cx="-920.25" cy="-365.41" r="2.17" gradientTransform="matrix(0.71, -0.46, 1.4, 1.83, 1211.51, 291.98)" xlink:href="#radial-gradient-2"/></defs><g class="cls-1"><g id="Layer_2" data-name="Layer 2"><g id="OBJECTS"><path class="cls-2" d="M13.89,37.47A23.58,23.58,0,1,0,37.47,13.89,23.58,23.58,0,0,0,13.89,37.47Z"/><path class="cls-3" d="M41.06,35c-6-4.87-8.35-12.29-5.24-16.57s10.51-3.8,16.52,1.07,8.35,12.29,5.24,16.57S47.07,39.91,41.06,35Z"/><path class="cls-4" d="M16.63,42.68c.79-2.61,4.84-1.53,9,2.41s7,9.25,6.16,11.86-4.83,1.53-9-2.41S15.84,45.28,16.63,42.68Z"/><path class="cls-5" d="M40.33,6.92a2.86,2.86,0,0,1-2.86,2.86h0a2.86,2.86,0,0,1-2.86-2.86V2.86A2.86,2.86,0,0,1,37.47,0h0a2.86,2.86,0,0,1,2.86,2.86Z"/><path class="cls-6" d="M17.89,13.84a2.86,2.86,0,0,1,0,4.05h0a2.86,2.86,0,0,1-4.05,0L11,15a2.87,2.87,0,0,1,0-4h0a2.87,2.87,0,0,1,4,0Z"/><path class="cls-7" d="M6.92,34.61a2.86,2.86,0,0,1,2.86,2.86h0a2.86,2.86,0,0,1-2.86,2.86H2.86A2.86,2.86,0,0,1,0,37.47H0a2.86,2.86,0,0,1,2.86-2.86Z"/><path class="cls-8" d="M13.84,57.05a2.86,2.86,0,0,1,4.05,0h0a2.85,2.85,0,0,1,0,4L15,64a2.85,2.85,0,0,1-4,0h0a2.85,2.85,0,0,1,0-4Z"/><path class="cls-9" d="M34.61,68a2.86,2.86,0,0,1,2.86-2.86h0A2.86,2.86,0,0,1,40.33,68v4.06a2.86,2.86,0,0,1-2.86,2.86h0a2.86,2.86,0,0,1-2.86-2.86Z"/><path class="cls-10" d="M57.05,61.09a2.85,2.85,0,0,1,0-4h0a2.85,2.85,0,0,1,4,0L64,59.92a2.86,2.86,0,0,1,0,4h0a2.86,2.86,0,0,1-4,0Z"/><path class="cls-11" d="M68,40.33a2.86,2.86,0,0,1-2.86-2.86h0A2.86,2.86,0,0,1,68,34.61h4.06a2.86,2.86,0,0,1,2.86,2.86h0a2.86,2.86,0,0,1-2.86,2.86Z"/><path class="cls-12" d="M61.09,17.89a2.86,2.86,0,0,1-4,0h0a2.86,2.86,0,0,1,0-4.05L59.92,11a2.87,2.87,0,0,1,4,0h0a2.86,2.86,0,0,1,0,4Z"/><path class="cls-13" d="M16.84,42.3A16.32,16.32,0,0,1,32.7,54.78a10.48,10.48,0,0,1,4.61-1.07,10.62,10.62,0,1,1,0,21.23H16.84a16.32,16.32,0,0,1,0-32.64Z"/><path class="cls-14" d="M16.84,42.3A16.32,16.32,0,0,1,32.7,54.78a10.48,10.48,0,0,1,4.61-1.07,10.62,10.62,0,1,1,0,21.23H16.84a16.32,16.32,0,0,1,0-32.64Z"/><path class="cls-15" d="M14.75,57.9c4.25-3.45,5.91-8.7,3.71-11.73S11,43.49,6.77,46.93s-5.9,8.7-3.7,11.72S10.5,61.34,14.75,57.9Z"/><path class="cls-16" d="M36.13,62.37c2.33-1.89,3.25-4.78,2-6.44s-4.09-1.48-6.42.42-3.25,4.78-2,6.44S33.8,64.27,36.13,62.37Z"/><path class="cls-17" d="M41.31,66.5c2.57-2.6,5.22-3.61,5.93-2.27s-.81,4.54-3.37,7.14S38.64,75,37.94,73.64,38.74,69.1,41.31,66.5Z"/><path class="cls-18" d="M71.25,23.51A12.94,12.94,0,0,0,58.68,33.4a8.42,8.42,0,1,0-3.66,16H71.25a12.94,12.94,0,0,0,0-25.88Z"/><path class="cls-19" d="M71.25,23.51A12.94,12.94,0,0,0,58.68,33.4a8.42,8.42,0,1,0-3.66,16H71.25a12.94,12.94,0,0,0,0-25.88Z"/><path class="cls-20" d="M72.91,35.88c-3.37-2.74-4.69-6.9-2.94-9.3s5.9-2.13,9.27.6,4.68,6.9,2.93,9.29S76.28,38.61,72.91,35.88Z"/><path class="cls-21" d="M56,39.43c-1.85-1.51-2.57-3.79-1.61-5.11s3.24-1.18,5.09.32,2.57,3.8,1.62,5.11S57.81,40.93,56,39.43Z"/><path class="cls-22" d="M51.85,42.7c-2-2.06-4.14-2.87-4.7-1.8s.64,3.6,2.67,5.66,4.14,2.86,4.7,1.8S53.88,44.76,51.85,42.7Z"/></g></g></g></svg>