<svg xmlns="http://www.w3.org/2000/svg" xmlns:xlink="http://www.w3.org/1999/xlink" viewBox="0 0 52.08 70.35"><defs><style>.cls-1{isolation:isolate;}.cls-2{fill:url(#radial-gradient);}.cls-3{opacity:0.6;fill:url(#radial-gradient-2);}.cls-3,.cls-4{mix-blend-mode:overlay;}.cls-4{opacity:0.3;fill:url(#Degradado_sin_nombre_34);}</style><radialGradient id="radial-gradient" cx="17.83" cy="53.51" r="56.55" gradientUnits="userSpaceOnUse"><stop offset="0" stop-color="#b0ffee"/><stop offset="0.19" stop-color="#66afff"/><stop offset="1" stop-color="#446cf5"/></radialGradient><radialGradient id="radial-gradient-2" cx="690.42" cy="-1956.94" r="9.81" gradientTransform="matrix(-0.84, 1.15, -1.62, -1.31, -2570.22, -3311.95)" gradientUnits="userSpaceOnUse"><stop offset="0" stop-color="#fff"/><stop offset="0.1" stop-color="#fff" stop-opacity="0.85"/><stop offset="0.29" stop-color="#fff" stop-opacity="0.59"/><stop offset="0.47" stop-color="#fff" stop-opacity="0.38"/><stop offset="0.63" stop-color="#fff" stop-opacity="0.22"/><stop offset="0.78" stop-color="#fff" stop-opacity="0.1"/><stop offset="0.91" stop-color="#fff" stop-opacity="0.03"/><stop offset="1" stop-color="#fff" stop-opacity="0"/></radialGradient><radialGradient id="Degradado_sin_nombre_34" cx="338.53" cy="1686.18" r="7" gradientTransform="matrix(0.65, -0.53, -1.32, -1.89, 2046.9, 3387.08)" xlink:href="#radial-gradient-2"/></defs><g class="cls-1"><g id="Layer_2" data-name="Layer 2"><g id="OBJECTS"><path class="cls-2" d="M52.08,43.57A26,26,0,0,1,0,43.57C0,29.18,26,0,26,0S52.07,29.19,52.08,43.57Z"/><path class="cls-3" d="M9.66,64.52C.9,57.41-2.54,46.58,2,40.32s15.34-5.56,24.1,1.56,12.2,18,7.65,24.2S18.42,71.64,9.66,64.52Z"/><path class="cls-4" d="M43.46,22.91c4.35,8.28,4.78,15.54,1,16.23S34,33.66,29.61,25.38s-4.78-15.54-1-16.23S39.11,14.63,43.46,22.91Z"/></g></g></g></svg>