<svg xmlns="http://www.w3.org/2000/svg" xmlns:xlink="http://www.w3.org/1999/xlink" viewBox="0 0 103 88.78"><defs><style>.cls-1{isolation:isolate;}.cls-2{fill:url(#radial-gradient);}.cls-3{opacity:0.5;fill:url(#radial-gradient-2);}.cls-11,.cls-13,.cls-15,.cls-3,.cls-4,.cls-5,.cls-7,.cls-8,.cls-9{mix-blend-mode:overlay;}.cls-4{opacity:0.3;fill:url(#radial-gradient-3);}.cls-5,.cls-9{opacity:0.2;}.cls-5{fill:url(#Degradado_sin_nombre_34);}.cls-6{fill:url(#radial-gradient-4);}.cls-7{fill:url(#radial-gradient-5);}.cls-8{opacity:0.4;fill:url(#radial-gradient-6);}.cls-9{fill:url(#Degradado_sin_nombre_34-2);}.cls-10{fill:url(#radial-gradient-7);}.cls-11{fill:url(#radial-gradient-8);}.cls-12{fill:url(#radial-gradient-9);}.cls-13{fill:url(#radial-gradient-10);}.cls-14{fill:url(#radial-gradient-11);}.cls-15{fill:url(#radial-gradient-12);}</style><radialGradient id="radial-gradient" cx="1347.28" cy="7.79" r="70.49" gradientTransform="matrix(-1, 0, 0, 1, 1385.56, 0)" gradientUnits="userSpaceOnUse"><stop offset="0" stop-color="#bad0d6"/><stop offset="0.2" stop-color="#9bbac2"/><stop offset="1" stop-color="#5d8bb8"/></radialGradient><radialGradient id="radial-gradient-2" cx="488.63" cy="-2302.33" r="8.27" gradientTransform="matrix(0.84, 1.15, 1.62, -1.31, 3354.82, -3568.13)" gradientUnits="userSpaceOnUse"><stop offset="0" stop-color="#fff"/><stop offset="0.1" stop-color="#fff" stop-opacity="0.85"/><stop offset="0.29" stop-color="#fff" stop-opacity="0.59"/><stop offset="0.47" stop-color="#fff" stop-opacity="0.38"/><stop offset="0.63" stop-color="#fff" stop-opacity="0.22"/><stop offset="0.78" stop-color="#fff" stop-opacity="0.1"/><stop offset="0.91" stop-color="#fff" stop-opacity="0.03"/><stop offset="1" stop-color="#fff" stop-opacity="0"/></radialGradient><radialGradient id="radial-gradient-3" cx="513.05" cy="-2290.07" r="4.55" xlink:href="#radial-gradient-2"/><radialGradient id="Degradado_sin_nombre_34" cx="1474.15" cy="57.95" r="4.75" gradientTransform="matrix(-0.71, -0.46, -1.4, 1.83, 1215.01, 615.88)" xlink:href="#radial-gradient-2"/><radialGradient id="radial-gradient-4" cx="1367.81" cy="23.14" r="70.49" gradientTransform="matrix(-1, 0, 0, 1, 1385.56, 0)" gradientUnits="userSpaceOnUse"><stop offset="0" stop-color="#fff"/><stop offset="0.2" stop-color="#d9f7ff"/><stop offset="1" stop-color="#89c0f5"/></radialGradient><radialGradient id="radial-gradient-5" cx="487.93" cy="-2314.64" r="8.27" xlink:href="#radial-gradient-2"/><radialGradient id="radial-gradient-6" cx="512.34" cy="-2302.39" r="4.55" xlink:href="#radial-gradient-2"/><radialGradient id="Degradado_sin_nombre_34-2" cx="1494.87" cy="81.79" r="4.75" gradientTransform="matrix(-0.71, -0.46, -1.4, 1.83, 1242.47, 597.07)" xlink:href="#radial-gradient-2"/><radialGradient id="radial-gradient-7" cx="-277.02" cy="11.34" r="9.89" gradientTransform="translate(267.43 214.48) rotate(30)" gradientUnits="userSpaceOnUse"><stop offset="0" stop-color="#d4f6ff"/><stop offset="0.2" stop-color="#d9f7ff"/><stop offset="1" stop-color="#89c0f5"/></radialGradient><radialGradient id="radial-gradient-8" cx="1202.99" cy="-1669.16" r="1.55" gradientTransform="matrix(-1.3, 0.58, -0.75, -1.95, 346.4, -3860.05)" xlink:href="#radial-gradient-2"/><radialGradient id="radial-gradient-9" cx="-262.13" cy="2.74" r="9.89" xlink:href="#radial-gradient-7"/><radialGradient id="radial-gradient-10" cx="1191.72" cy="-1672.52" r="1.55" gradientTransform="matrix(-1.3, 0.58, -0.75, -1.95, 346.4, -3860.05)" xlink:href="#radial-gradient-2"/><radialGradient id="radial-gradient-11" cx="-247.24" cy="-5.86" r="9.89" xlink:href="#radial-gradient-7"/><radialGradient id="radial-gradient-12" cx="1180.45" cy="-1675.87" r="1.55" gradientTransform="matrix(-1.3, 0.58, -0.75, -1.95, 346.4, -3860.05)" xlink:href="#radial-gradient-2"/></defs><g class="cls-1"><g id="Layer_2" data-name="Layer 2"><g id="OBJECTS"><path class="cls-2" d="M48.92,0A28.4,28.4,0,0,1,76.51,21.7a18.46,18.46,0,1,1,8,35.08H48.92A28.39,28.39,0,0,1,48.92,0Z"/><path class="cls-3" d="M45.28,27.13c7.39-6,10.28-15.13,6.45-20.4S38.79,2.05,31.4,8.05,21.12,23.18,25,28.44,37.89,33.12,45.28,27.13Z"/><path class="cls-4" d="M82.48,34.92c4.06-3.3,5.65-8.32,3.54-11.21s-7.11-2.57-11.17.72S69.2,32.75,71.3,35.64,78.42,38.21,82.48,34.92Z"/><path class="cls-5" d="M91.49,42.1c4.47-4.52,9.09-6.29,10.32-4s-1.41,7.9-5.88,12.42-9.08,6.28-10.31,3.94S87,46.62,91.49,42.1Z"/><path class="cls-6" d="M28.39,15.35A28.4,28.4,0,0,1,56,37.05a18.46,18.46,0,1,1,8,35.08H28.39a28.39,28.39,0,0,1,0-56.78Z"/><path class="cls-7" d="M24.75,42.48c7.4-6,10.28-15.13,6.45-20.4S18.27,17.4,10.87,23.4.6,38.53,4.43,43.79,17.36,48.47,24.75,42.48Z"/><path class="cls-8" d="M62,50.27C66,47,67.6,42,65.5,39.06s-7.11-2.57-11.18.72S48.68,48.09,50.78,51,57.89,53.56,62,50.27Z"/><path class="cls-9" d="M71,57.45c4.47-4.52,9.08-6.29,10.31-4s-1.4,7.89-5.87,12.42S66.32,72.2,65.1,69.86,66.5,62,71,57.45Z"/><path class="cls-10" d="M27.36,86.73a4.11,4.11,0,0,1-7.12-4.11c1.14-2,8.16-5.91,8.16-5.91S28.5,84.76,27.36,86.73Z"/><path class="cls-11" d="M20.36,86.05c-.64-1.67-.25-3.42.87-3.92s2.53.45,3.17,2.12.25,3.42-.86,3.91S21,87.71,20.36,86.05Z"/><path class="cls-12" d="M44.55,86.73a4.11,4.11,0,0,1-7.12-4.11c1.14-2,8.16-5.91,8.16-5.91S45.69,84.76,44.55,86.73Z"/><path class="cls-13" d="M37.55,86.05c-.63-1.67-.25-3.42.87-3.92s2.54.45,3.17,2.12.25,3.42-.86,3.91S38.19,87.71,37.55,86.05Z"/><path class="cls-14" d="M61.75,86.73a4.11,4.11,0,0,1-7.12-4.11c1.13-2,8.15-5.91,8.15-5.91S62.88,84.76,61.75,86.73Z"/><path class="cls-15" d="M54.75,86.05c-.64-1.67-.25-3.42.86-3.92s2.54.45,3.18,2.12.25,3.42-.87,3.91S55.38,87.71,54.75,86.05Z"/></g></g></g></svg>