<svg xmlns="http://www.w3.org/2000/svg" xmlns:xlink="http://www.w3.org/1999/xlink" viewBox="0 0 78.21 69.88"><defs><style>.cls-1{isolation:isolate;}.cls-2{fill:url(#radial-gradient);}.cls-3{fill:#b0b1b6;}.cls-11,.cls-13,.cls-15,.cls-4,.cls-5,.cls-7,.cls-8,.cls-9{mix-blend-mode:overlay;}.cls-4{fill:url(#radial-gradient-2);}.cls-5{opacity:0.4;fill:url(#Degradado_sin_nombre_34);}.cls-6{fill:url(#radial-gradient-3);}.cls-7{opacity:0.5;fill:url(#radial-gradient-4);}.cls-8{opacity:0.3;fill:url(#radial-gradient-5);}.cls-9{opacity:0.2;fill:url(#Degradado_sin_nombre_34-2);}.cls-10{fill:url(#radial-gradient-6);}.cls-11{fill:url(#radial-gradient-7);}.cls-12{fill:url(#radial-gradient-8);}.cls-13{fill:url(#radial-gradient-9);}.cls-14{fill:url(#radial-gradient-10);}.cls-15{fill:url(#radial-gradient-11);}</style><radialGradient id="radial-gradient" cx="-423.08" cy="10.22" r="52" gradientTransform="matrix(-1, 0, 0, 1, -366, 0)" gradientUnits="userSpaceOnUse"><stop offset="0" stop-color="#fcfcfc"/><stop offset="0.16" stop-color="#f1edf5"/><stop offset="1" stop-color="#9fa1a6"/></radialGradient><radialGradient id="radial-gradient-2" cx="909.63" cy="-2010.01" r="7.81" gradientTransform="matrix(-0.84, 1.15, -1.62, -1.31, -2428.51, -3672.12)" gradientUnits="userSpaceOnUse"><stop offset="0" stop-color="#fff"/><stop offset="0.1" stop-color="#fff" stop-opacity="0.85"/><stop offset="0.29" stop-color="#fff" stop-opacity="0.59"/><stop offset="0.47" stop-color="#fff" stop-opacity="0.38"/><stop offset="0.63" stop-color="#fff" stop-opacity="0.22"/><stop offset="0.78" stop-color="#fff" stop-opacity="0.1"/><stop offset="0.91" stop-color="#fff" stop-opacity="0.03"/><stop offset="1" stop-color="#fff" stop-opacity="0"/></radialGradient><radialGradient id="Degradado_sin_nombre_34" cx="-3237.11" cy="2953.96" r="7.53" gradientTransform="matrix(-1.17, -1.1, 0.22, -0.73, -4413.27, -1369.98)" xlink:href="#radial-gradient-2"/><radialGradient id="radial-gradient-3" cx="1078.7" cy="24.15" r="58.83" gradientTransform="matrix(-1, 0, 0, 1, 1093.51, 0)" gradientUnits="userSpaceOnUse"><stop offset="0" stop-color="#bad0d6"/><stop offset="0.2" stop-color="#9bbac2"/><stop offset="1" stop-color="#5d8bb8"/></radialGradient><radialGradient id="radial-gradient-4" cx="469.06" cy="-2409.98" r="6.9" gradientTransform="matrix(0.84, 1.15, 1.62, -1.31, 3522.03, -3672.12)" xlink:href="#radial-gradient-2"/><radialGradient id="radial-gradient-5" cx="489.44" cy="-2399.75" r="3.79" gradientTransform="matrix(0.84, 1.15, 1.62, -1.31, 3522.03, -3672.12)" xlink:href="#radial-gradient-2"/><radialGradient id="Degradado_sin_nombre_34-2" cx="1172.98" cy="78.67" r="3.97" gradientTransform="matrix(-0.71, -0.46, -1.4, 1.83, 998.86, 449.89)" xlink:href="#radial-gradient-2"/><radialGradient id="radial-gradient-6" cx="-250.24" cy="-92.03" r="9.89" gradientTransform="translate(188.96 271.71) rotate(30)" gradientUnits="userSpaceOnUse"><stop offset="0" stop-color="#d4f6ff"/><stop offset="0.2" stop-color="#d9f7ff"/><stop offset="1" stop-color="#89c0f5"/></radialGradient><radialGradient id="radial-gradient-7" cx="988.44" cy="-1858.2" r="1.55" gradientTransform="matrix(-1.3, 0.58, -0.75, -1.95, -77.78, -4122.51)" xlink:href="#radial-gradient-2"/><radialGradient id="radial-gradient-8" cx="-235.26" cy="-100.68" r="9.89" xlink:href="#radial-gradient-6"/><radialGradient id="radial-gradient-9" cx="977.1" cy="-1861.57" r="1.55" gradientTransform="matrix(-1.3, 0.58, -0.75, -1.95, -77.78, -4122.51)" xlink:href="#radial-gradient-2"/><radialGradient id="radial-gradient-10" cx="-220.28" cy="-109.33" r="9.89" xlink:href="#radial-gradient-6"/><radialGradient id="radial-gradient-11" cx="965.76" cy="-1864.95" r="1.55" gradientTransform="matrix(-1.3, 0.58, -0.75, -1.95, -77.78, -4122.51)" xlink:href="#radial-gradient-2"/></defs><g class="cls-1"><g id="Layer_2" data-name="Layer 2"><g id="OBJECTS"><path class="cls-2" d="M23.42,27.39A27.4,27.4,0,1,0,50.81,0,27.39,27.39,0,0,0,23.42,27.39Z"/><path class="cls-3" d="M31.67,32.24c2.58-.23,4.41-3.15,4.11-6.52S33.15,19.8,30.57,20s-4.41,3.16-4.11,6.52S29.1,32.47,31.67,32.24Z"/><path class="cls-3" d="M29.44,34.69c-1.54.81-1.93,3.1-.87,5.12s3.17,3,4.71,2.19,1.93-3.1.87-5.12S31,33.88,29.44,34.69Z"/><path class="cls-3" d="M35.55,32.25a2.21,2.21,0,0,0-.51,3,2.22,2.22,0,0,0,2.78,1.3,2.21,2.21,0,0,0,.51-3A2.22,2.22,0,0,0,35.55,32.25Z"/><path class="cls-3" d="M76.11,28.38C75.64,25,73.18,22.61,70.62,23s-4.25,3.37-3.77,6.72,2.93,5.77,5.49,5.41S76.59,31.73,76.11,28.38Z"/><path class="cls-3" d="M72.73,20.41c1.5-.89,1.77-3.2.61-5.16S70,12.42,68.52,13.3s-1.77,3.2-.61,5.16S71.23,21.3,72.73,20.41Z"/><path class="cls-3" d="M67.11,20.1A2.22,2.22,0,0,0,64.26,19,2.22,2.22,0,0,0,63.9,22a2.22,2.22,0,0,0,2.85,1.15A2.22,2.22,0,0,0,67.11,20.1Z"/><path class="cls-4" d="M55,24.58c-7-5.67-9.7-14.28-6.09-19.25S61.11.91,68.09,6.57s9.69,14.28,6.08,19.24S62,30.23,55,24.58Z"/><path class="cls-5" d="M26.6,33.45c.93-3,5.62-1.78,10.5,2.8S45.17,47,44.25,50s-5.61,1.77-10.49-2.81S25.68,36.47,26.6,33.45Z"/><path class="cls-6" d="M23.69,17.65a23.7,23.7,0,0,1,23,18.1A15.41,15.41,0,1,1,53.42,65H23.69a23.7,23.7,0,0,1,0-47.39Z"/><path class="cls-7" d="M20.66,40.29c6.17-5,8.58-12.63,5.38-17s-10.8-3.91-17,1.09S.5,37,3.69,41.39,14.49,45.29,20.66,40.29Z"/><path class="cls-8" d="M51.71,46.79c3.39-2.75,4.71-6.94,2.95-9.36s-5.93-2.14-9.32.61-4.72,6.94-3,9.35S48.32,49.54,51.71,46.79Z"/><path class="cls-9" d="M59.23,52.78C63,49,66.81,47.54,67.84,49.49s-1.17,6.59-4.9,10.36-7.59,5.25-8.61,3.3S55.5,56.55,59.23,52.78Z"/><path class="cls-10" d="M23.77,67.82a4.11,4.11,0,1,1-7.12-4.11c1.13-2,8.16-5.9,8.16-5.9S24.91,65.86,23.77,67.82Z"/><path class="cls-11" d="M16.77,67.14c-.64-1.66-.25-3.42.86-3.91s2.54.45,3.18,2.11.25,3.42-.87,3.92S17.41,68.81,16.77,67.14Z"/><path class="cls-12" d="M41.07,67.82a4.11,4.11,0,0,1-7.13-4.11c1.14-2,8.16-5.9,8.16-5.9S42.2,65.86,41.07,67.82Z"/><path class="cls-13" d="M34.07,67.14c-.64-1.66-.25-3.42.86-3.91s2.54.45,3.17,2.11.25,3.42-.86,3.92S34.7,68.81,34.07,67.14Z"/><path class="cls-14" d="M58.36,67.82a4.11,4.11,0,1,1-7.12-4.11c1.14-2,8.16-5.9,8.16-5.9S59.5,65.86,58.36,67.82Z"/><path class="cls-15" d="M51.36,67.14c-.63-1.66-.25-3.42.87-3.91s2.53.45,3.17,2.11.25,3.42-.86,3.92S52,68.81,51.36,67.14Z"/></g></g></g></svg>