<svg xmlns="http://www.w3.org/2000/svg" xmlns:xlink="http://www.w3.org/1999/xlink" viewBox="0 0 89.42 75.98"><defs><style>.cls-1{isolation:isolate;}.cls-2{fill:url(#radial-gradient);}.cls-15,.cls-16,.cls-17,.cls-3,.cls-4{mix-blend-mode:overlay;}.cls-3{fill:url(#radial-gradient-2);}.cls-16,.cls-4{opacity:0.4;}.cls-4{fill:url(#Degradado_sin_nombre_34);}.cls-5{fill:url(#radial-gradient-3);}.cls-6{fill:url(#radial-gradient-4);}.cls-7{fill:url(#radial-gradient-5);}.cls-8{fill:url(#radial-gradient-6);}.cls-9{fill:url(#radial-gradient-7);}.cls-10{fill:url(#radial-gradient-8);}.cls-11{fill:url(#radial-gradient-9);}.cls-12{fill:url(#radial-gradient-10);}.cls-13{fill:url(#radial-gradient-11);}.cls-14{fill:url(#radial-gradient-12);}.cls-15{fill:url(#radial-gradient-13);}.cls-16{fill:url(#radial-gradient-14);}.cls-17{opacity:0.2;fill:url(#Degradado_sin_nombre_34-2);}</style><radialGradient id="radial-gradient" cx="-415.11" cy="20.57" r="40.6" gradientTransform="matrix(-1, 0, 0, 1, -354.79, 0)" gradientUnits="userSpaceOnUse"><stop offset="0" stop-color="#fff8c7"/><stop offset="0.16" stop-color="#ffe436"/><stop offset="1" stop-color="#fe761c"/></radialGradient><radialGradient id="radial-gradient-2" cx="797.09" cy="-1718.11" r="6.09" gradientTransform="matrix(-0.84, 1.15, -1.62, -1.31, -2048.21, -3149.96)" gradientUnits="userSpaceOnUse"><stop offset="0" stop-color="#fff"/><stop offset="0.1" stop-color="#fff" stop-opacity="0.85"/><stop offset="0.29" stop-color="#fff" stop-opacity="0.59"/><stop offset="0.47" stop-color="#fff" stop-opacity="0.38"/><stop offset="0.63" stop-color="#fff" stop-opacity="0.22"/><stop offset="0.78" stop-color="#fff" stop-opacity="0.1"/><stop offset="0.91" stop-color="#fff" stop-opacity="0.03"/><stop offset="1" stop-color="#fff" stop-opacity="0"/></radialGradient><radialGradient id="Degradado_sin_nombre_34" cx="-3187.55" cy="3425.26" r="5.88" gradientTransform="matrix(-1.17, -1.1, 0.22, -0.73, -4451.84, -968.74)" xlink:href="#radial-gradient-2"/><radialGradient id="radial-gradient-3" cx="55.91" cy="1.31" r="7.06" gradientTransform="matrix(1, 0, 0, 1, 0, 0)" xlink:href="#radial-gradient"/><radialGradient id="radial-gradient-4" cx="540.43" cy="-79.97" r="7.06" gradientTransform="translate(-292.93 449.23) rotate(-45)" xlink:href="#radial-gradient"/><radialGradient id="radial-gradient-5" cx="940.43" cy="204.98" r="7.06" gradientTransform="translate(-182.22 973.94) rotate(-90)" xlink:href="#radial-gradient"/><radialGradient id="radial-gradient-6" cx="1021.87" cy="689.5" r="7.06" gradientTransform="translate(267.01 1266.87) rotate(-135)" xlink:href="#radial-gradient"/><radialGradient id="radial-gradient-7" cx="736.75" cy="1089.5" r="7.06" gradientTransform="translate(791.72 1156.16) rotate(180)" xlink:href="#radial-gradient"/><radialGradient id="radial-gradient-8" cx="252.39" cy="1170.95" r="7.06" gradientTransform="translate(1084.65 706.93) rotate(135)" xlink:href="#radial-gradient"/><radialGradient id="radial-gradient-9" cx="-147.77" cy="885.83" r="7.06" gradientTransform="translate(973.94 182.22) rotate(90)" xlink:href="#radial-gradient"/><radialGradient id="radial-gradient-10" cx="-229.04" cy="401.47" r="7.06" gradientTransform="translate(524.71 -110.71) rotate(45)" xlink:href="#radial-gradient"/><radialGradient id="radial-gradient-11" cx="1087.17" cy="27.52" r="69.73" gradientTransform="matrix(-1, 0, 0, 1, 1104.73, 0)" gradientUnits="userSpaceOnUse"><stop offset="0" stop-color="#fff"/><stop offset="0.2" stop-color="#d9f7ff"/><stop offset="1" stop-color="#89c0f5"/></radialGradient><radialGradient id="radial-gradient-12" cx="49.92" cy="33.86" r="39.84" gradientUnits="userSpaceOnUse"><stop offset="0" stop-color="#ffe436"/><stop offset="0.08" stop-color="#ffcf31" stop-opacity="0.81"/><stop offset="0.18" stop-color="#ffb72b" stop-opacity="0.6"/><stop offset="0.28" stop-color="#fea327" stop-opacity="0.41"/><stop offset="0.38" stop-color="#fe9323" stop-opacity="0.26"/><stop offset="0.48" stop-color="#fe8620" stop-opacity="0.15"/><stop offset="0.58" stop-color="#fe7d1e" stop-opacity="0.07"/><stop offset="0.68" stop-color="#fe781c" stop-opacity="0.02"/><stop offset="0.77" stop-color="#fe761c" stop-opacity="0"/></radialGradient><radialGradient id="radial-gradient-13" cx="351.44" cy="-2119.27" r="8.18" gradientTransform="matrix(0.84, 1.15, 1.62, -1.31, 3152.94, -3149.96)" xlink:href="#radial-gradient-2"/><radialGradient id="radial-gradient-14" cx="375.6" cy="-2107.15" r="4.5" gradientTransform="matrix(0.84, 1.15, 1.62, -1.31, 3152.94, -3149.96)" xlink:href="#radial-gradient-2"/><radialGradient id="Degradado_sin_nombre_34-2" cx="1213.94" cy="27.34" r="4.7" gradientTransform="matrix(-0.71, -0.46, -1.4, 1.83, 967.25, 571.98)" xlink:href="#radial-gradient-2"/></defs><g class="cls-1"><g id="Layer_2" data-name="Layer 2"><g id="OBJECTS"><path class="cls-2" d="M34.05,34A21.39,21.39,0,1,0,55.43,12.6,21.39,21.39,0,0,0,34.05,34Z"/><path class="cls-3" d="M58.69,31.78c-5.44-4.42-7.57-11.14-4.75-15s9.53-3.44,15,1,7.57,11.15,4.75,15S64.14,36.2,58.69,31.78Z"/><path class="cls-4" d="M36.53,38.71c.72-2.37,4.39-1.38,8.2,2.19s6.3,8.39,5.58,10.76S45.93,53,42.12,49.47,35.81,41.07,36.53,38.71Z"/><path class="cls-5" d="M58,6.27a2.59,2.59,0,0,1-2.6,2.6h0a2.59,2.59,0,0,1-2.59-2.6V2.59A2.59,2.59,0,0,1,55.43,0h0A2.59,2.59,0,0,1,58,2.59Z"/><path class="cls-6" d="M37.67,12.56a2.57,2.57,0,0,1,0,3.66h0a2.57,2.57,0,0,1-3.66,0l-2.61-2.6a2.6,2.6,0,0,1,0-3.67h0a2.59,2.59,0,0,1,3.67,0Z"/><path class="cls-7" d="M27.72,31.39a2.59,2.59,0,0,1,2.6,2.6h0a2.59,2.59,0,0,1-2.6,2.59H24A2.59,2.59,0,0,1,21.45,34h0A2.59,2.59,0,0,1,24,31.39Z"/><path class="cls-8" d="M34,51.74a2.59,2.59,0,0,1,3.66,0h0a2.58,2.58,0,0,1,0,3.67L35.07,58a2.59,2.59,0,0,1-3.67,0h0a2.59,2.59,0,0,1,0-3.67Z"/><path class="cls-9" d="M52.84,61.69a2.59,2.59,0,0,1,2.59-2.59h0A2.59,2.59,0,0,1,58,61.69v3.69A2.59,2.59,0,0,1,55.44,68h0a2.59,2.59,0,0,1-2.6-2.59Z"/><path class="cls-10" d="M73.2,55.41a2.58,2.58,0,0,1,0-3.67h0a2.59,2.59,0,0,1,3.66,0l2.6,2.6a2.59,2.59,0,0,1,0,3.67h0a2.58,2.58,0,0,1-3.67,0Z"/><path class="cls-11" d="M83.14,36.58A2.59,2.59,0,0,1,80.55,34h0a2.59,2.59,0,0,1,2.59-2.59h3.68A2.59,2.59,0,0,1,89.42,34h0a2.59,2.59,0,0,1-2.6,2.6Z"/><path class="cls-12" d="M76.86,16.22a2.58,2.58,0,0,1-3.67,0h0a2.59,2.59,0,0,1,0-3.66L75.8,10a2.59,2.59,0,0,1,3.66,0h0a2.58,2.58,0,0,1,0,3.67Z"/><path class="cls-13" d="M28.08,19.81a28.1,28.1,0,0,1,27.3,21.47,18.07,18.07,0,0,1,7.94-1.84,18.27,18.27,0,0,1,0,36.54H28.08a28.09,28.09,0,0,1,0-56.17Z"/><path class="cls-14" d="M28.08,19.81a28.1,28.1,0,0,1,27.3,21.47,18.07,18.07,0,0,1,7.94-1.84,18.27,18.27,0,0,1,0,36.54H28.08a28.09,28.09,0,0,1,0-56.17Z"/><path class="cls-15" d="M24.49,46.65c7.31-5.93,10.17-15,6.37-20.18s-12.79-4.63-20.11,1.3S.59,42.74,4.38,48,17.18,52.58,24.49,46.65Z"/><path class="cls-16" d="M61.29,54.36c4-3.27,5.58-8.23,3.5-11.09s-7-2.55-11.05.71-5.59,8.23-3.51,11.09S57.27,57.61,61.29,54.36Z"/><path class="cls-17" d="M70.2,61.46c4.42-4.47,9-6.22,10.2-3.91S79,65.36,74.6,69.84s-9,6.21-10.21,3.9S65.78,65.93,70.2,61.46Z"/></g></g></g></svg>