<svg xmlns="http://www.w3.org/2000/svg" xmlns:xlink="http://www.w3.org/1999/xlink" viewBox="0 0 90.08 90.08"><defs><style>.cls-1{isolation:isolate;}.cls-2{fill:url(#radial-gradient);}.cls-3,.cls-4{mix-blend-mode:overlay;}.cls-3{fill:url(#radial-gradient-2);}.cls-4{opacity:0.4;fill:url(#Degradado_sin_nombre_34);}.cls-5{fill:url(#radial-gradient-3);}.cls-6{fill:url(#radial-gradient-4);}.cls-7{fill:url(#radial-gradient-5);}.cls-8{fill:url(#radial-gradient-6);}.cls-9{fill:url(#radial-gradient-7);}.cls-10{fill:url(#radial-gradient-8);}.cls-11{fill:url(#radial-gradient-9);}.cls-12{fill:url(#radial-gradient-10);}</style><radialGradient id="radial-gradient" cx="396.09" cy="27.27" r="53.81" gradientTransform="matrix(-1, 0, 0, 1, 447.61, 0)" gradientUnits="userSpaceOnUse"><stop offset="0" stop-color="#fff8c7"/><stop offset="0.16" stop-color="#ffe436"/><stop offset="1" stop-color="#fe761c"/></radialGradient><radialGradient id="radial-gradient-2" cx="1382.46" cy="-1559.17" r="8.08" gradientTransform="matrix(-0.84, 1.15, -1.62, -1.31, -1307.37, -3608.56)" gradientUnits="userSpaceOnUse"><stop offset="0" stop-color="#fff"/><stop offset="0.1" stop-color="#fff" stop-opacity="0.85"/><stop offset="0.29" stop-color="#fff" stop-opacity="0.59"/><stop offset="0.47" stop-color="#fff" stop-opacity="0.38"/><stop offset="0.63" stop-color="#fff" stop-opacity="0.22"/><stop offset="0.78" stop-color="#fff" stop-opacity="0.1"/><stop offset="0.91" stop-color="#fff" stop-opacity="0.03"/><stop offset="1" stop-color="#fff" stop-opacity="0"/></radialGradient><radialGradient id="Degradado_sin_nombre_34" cx="-2513.28" cy="2996.71" r="7.79" gradientTransform="matrix(-1.17, -1.1, 0.22, -0.73, -3580.96, -523.99)" xlink:href="#radial-gradient-2"/><radialGradient id="radial-gradient-3" cx="45.67" cy="1.74" r="9.36" gradientTransform="matrix(1, 0, 0, 1, 0, 0)" xlink:href="#radial-gradient"/><radialGradient id="radial-gradient-4" cx="644.22" cy="-373.29" r="9.36" gradientTransform="translate(-176.71 733.46) rotate(-45)" xlink:href="#radial-gradient"/><radialGradient id="radial-gradient-5" cx="1332.55" cy="-215.42" r="9.36" gradientTransform="translate(217.15 1376.96) rotate(-90)" xlink:href="#radial-gradient"/><radialGradient id="radial-gradient-6" cx="1707.74" cy="383.13" r="9.36" gradientTransform="translate(950.61 1553.67) rotate(-135)" xlink:href="#radial-gradient"/><radialGradient id="radial-gradient-7" cx="1549.7" cy="1071.47" r="9.36" gradientTransform="translate(1594.12 1159.81) rotate(180)" xlink:href="#radial-gradient"/><radialGradient id="radial-gradient-8" cx="951.32" cy="1446.66" r="9.36" gradientTransform="translate(1770.83 426.36) rotate(135)" xlink:href="#radial-gradient"/><radialGradient id="radial-gradient-9" cx="262.82" cy="1288.62" r="9.36" gradientTransform="translate(1376.97 -217.15) rotate(90)" xlink:href="#radial-gradient"/><radialGradient id="radial-gradient-10" cx="-112.21" cy="690.24" r="9.36" gradientTransform="translate(643.51 -393.86) rotate(45)" xlink:href="#radial-gradient"/></defs><g class="cls-1"><g id="Layer_2" data-name="Layer 2"><g id="OBJECTS"><path class="cls-2" d="M16.7,45A28.35,28.35,0,1,0,45,16.7,28.34,28.34,0,0,0,16.7,45Z"/><path class="cls-3" d="M49.36,42.12c-7.22-5.86-10-14.77-6.3-19.92s12.64-4.56,19.86,1.29,10,14.77,6.29,19.92S56.58,48,49.36,42.12Z"/><path class="cls-4" d="M20,51.3c1-3.13,5.82-1.83,10.86,2.91s8.36,11.11,7.4,14.25-5.81,1.84-10.86-2.9S19,54.43,20,51.3Z"/><path class="cls-5" d="M48.48,8.32A3.43,3.43,0,0,1,45,11.75h0A3.43,3.43,0,0,1,41.6,8.32V3.44A3.44,3.44,0,0,1,45,0h0a3.44,3.44,0,0,1,3.44,3.44Z"/><path class="cls-6" d="M21.5,16.64a3.42,3.42,0,0,1,0,4.86h0a3.42,3.42,0,0,1-4.86,0l-3.45-3.45a3.44,3.44,0,0,1,0-4.86h0a3.44,3.44,0,0,1,4.86,0Z"/><path class="cls-7" d="M8.32,41.6A3.43,3.43,0,0,1,11.75,45h0a3.43,3.43,0,0,1-3.43,3.44H3.44A3.44,3.44,0,0,1,0,45H0A3.44,3.44,0,0,1,3.44,41.6Z"/><path class="cls-8" d="M16.64,68.58a3.44,3.44,0,0,1,4.86,0h0a3.42,3.42,0,0,1,0,4.86l-3.44,3.45a3.45,3.45,0,0,1-4.87,0h0a3.44,3.44,0,0,1,0-4.86Z"/><path class="cls-9" d="M41.6,81.77A3.44,3.44,0,0,1,45,78.33h0a3.44,3.44,0,0,1,3.44,3.44v4.87A3.44,3.44,0,0,1,45,90.08h0a3.43,3.43,0,0,1-3.43-3.44Z"/><path class="cls-10" d="M68.58,73.44a3.44,3.44,0,0,1,0-4.86h0a3.44,3.44,0,0,1,4.86,0L76.89,72a3.44,3.44,0,0,1,0,4.86h0a3.44,3.44,0,0,1-4.86,0Z"/><path class="cls-11" d="M81.77,48.48A3.44,3.44,0,0,1,78.33,45h0a3.44,3.44,0,0,1,3.44-3.44h4.87A3.44,3.44,0,0,1,90.08,45h0a3.44,3.44,0,0,1-3.44,3.44Z"/><path class="cls-12" d="M73.44,21.5a3.42,3.42,0,0,1-4.86,0h0a3.44,3.44,0,0,1,0-4.86L72,13.19a3.44,3.44,0,0,1,4.86,0h0a3.44,3.44,0,0,1,0,4.86Z"/></g></g></g></svg>