<svg xmlns="http://www.w3.org/2000/svg" xmlns:xlink="http://www.w3.org/1999/xlink" viewBox="0 0 84.19 92.58"><defs><style>.cls-1{isolation:isolate;}.cls-2{fill:url(#radial-gradient);}.cls-15,.cls-16,.cls-17,.cls-20,.cls-21,.cls-22,.cls-24,.cls-26,.cls-28,.cls-3,.cls-30,.cls-4{mix-blend-mode:overlay;}.cls-3{fill:url(#radial-gradient-2);}.cls-16,.cls-21,.cls-4{opacity:0.4;}.cls-4{fill:url(#Degradado_sin_nombre_34);}.cls-5{fill:url(#radial-gradient-3);}.cls-6{fill:url(#radial-gradient-4);}.cls-7{fill:url(#radial-gradient-5);}.cls-8{fill:url(#radial-gradient-6);}.cls-9{fill:url(#radial-gradient-7);}.cls-10{fill:url(#radial-gradient-8);}.cls-11{fill:url(#radial-gradient-9);}.cls-12{fill:url(#radial-gradient-10);}.cls-13{fill:url(#radial-gradient-11);}.cls-14{fill:url(#radial-gradient-12);}.cls-15{fill:url(#radial-gradient-13);}.cls-16{fill:url(#radial-gradient-14);}.cls-17,.cls-22{opacity:0.2;}.cls-17{fill:url(#Degradado_sin_nombre_34-2);}.cls-18{fill:url(#radial-gradient-15);}.cls-19{fill:url(#radial-gradient-16);}.cls-20{fill:url(#radial-gradient-17);}.cls-21{fill:url(#radial-gradient-18);}.cls-22{fill:url(#Degradado_sin_nombre_34-3);}.cls-23{fill:url(#radial-gradient-19);}.cls-24{fill:url(#radial-gradient-20);}.cls-25{fill:url(#radial-gradient-21);}.cls-26{fill:url(#radial-gradient-22);}.cls-27{fill:url(#radial-gradient-23);}.cls-28{fill:url(#radial-gradient-24);}.cls-29{fill:url(#radial-gradient-25);}.cls-30{fill:url(#radial-gradient-26);}</style><radialGradient id="radial-gradient" cx="131.61" cy="22.68" r="44.76" gradientTransform="matrix(-1, 0, 0, 1, 174.48, 0)" gradientUnits="userSpaceOnUse"><stop offset="0" stop-color="#fff8c7"/><stop offset="0.16" stop-color="#ffe436"/><stop offset="1" stop-color="#fe761c"/></radialGradient><radialGradient id="radial-gradient-2" cx="1371.07" cy="-2040.82" r="6.72" gradientTransform="matrix(-0.84, 1.15, -1.62, -1.31, -2105.97, -4233.16)" gradientUnits="userSpaceOnUse"><stop offset="0" stop-color="#fff"/><stop offset="0.1" stop-color="#fff" stop-opacity="0.85"/><stop offset="0.29" stop-color="#fff" stop-opacity="0.59"/><stop offset="0.47" stop-color="#fff" stop-opacity="0.38"/><stop offset="0.63" stop-color="#fff" stop-opacity="0.22"/><stop offset="0.78" stop-color="#fff" stop-opacity="0.1"/><stop offset="0.91" stop-color="#fff" stop-opacity="0.03"/><stop offset="1" stop-color="#fff" stop-opacity="0"/></radialGradient><radialGradient id="Degradado_sin_nombre_34" cx="-2803.58" cy="2440.27" r="6.48" gradientTransform="matrix(-1.17, -1.1, 0.22, -0.73, -3802.46, -1258.84)" xlink:href="#radial-gradient-2"/><radialGradient id="radial-gradient-3" cx="37.99" cy="1.44" r="7.79" gradientTransform="matrix(1, 0, 0, 1, 0, 0)" xlink:href="#radial-gradient"/><radialGradient id="radial-gradient-4" cx="364.96" cy="-379.21" r="7.79" gradientTransform="translate(22.44 537.83) rotate(-45)" xlink:href="#radial-gradient"/><radialGradient id="radial-gradient-5" cx="865.24" cy="-417.35" r="7.79" gradientTransform="translate(418.8 902.19) rotate(-90)" xlink:href="#radial-gradient"/><radialGradient id="radial-gradient-6" cx="1246.05" cy="-90.38" r="7.79" gradientTransform="translate(956.62 879.75) rotate(-135)" xlink:href="#radial-gradient"/><radialGradient id="radial-gradient-7" cx="1284.03" cy="409.9" r="7.79" gradientTransform="translate(1320.98 483.39) rotate(180)" xlink:href="#radial-gradient"/><radialGradient id="radial-gradient-8" cx="957.23" cy="790.71" r="7.79" gradientTransform="translate(1298.54 -54.43) rotate(135)" xlink:href="#radial-gradient"/><radialGradient id="radial-gradient-9" cx="456.78" cy="828.69" r="7.79" gradientTransform="translate(902.19 -418.79) rotate(90)" xlink:href="#radial-gradient"/><radialGradient id="radial-gradient-10" cx="76.13" cy="501.89" r="7.79" gradientTransform="translate(364.36 -396.36) rotate(45)" xlink:href="#radial-gradient"/><radialGradient id="radial-gradient-11" cx="1623.27" cy="46.78" r="40.51" gradientTransform="matrix(-1, 0, 0, 1, 1633.99, 0)" gradientUnits="userSpaceOnUse"><stop offset="0" stop-color="#fff"/><stop offset="0.2" stop-color="#d9f7ff"/><stop offset="1" stop-color="#89c0f5"/></radialGradient><radialGradient id="radial-gradient-12" cx="25.22" cy="45.31" r="40.53" gradientUnits="userSpaceOnUse"><stop offset="0" stop-color="#ffe436"/><stop offset="0.08" stop-color="#ffcf31" stop-opacity="0.81"/><stop offset="0.18" stop-color="#ffb72b" stop-opacity="0.6"/><stop offset="0.28" stop-color="#fea327" stop-opacity="0.41"/><stop offset="0.38" stop-color="#fe9323" stop-opacity="0.26"/><stop offset="0.48" stop-color="#fe8620" stop-opacity="0.15"/><stop offset="0.58" stop-color="#fe7d1e" stop-opacity="0.07"/><stop offset="0.68" stop-color="#fe781c" stop-opacity="0.02"/><stop offset="0.77" stop-color="#fe761c" stop-opacity="0"/></radialGradient><radialGradient id="radial-gradient-13" cx="687.73" cy="-2660.53" r="4.75" gradientTransform="matrix(0.84, 1.15, 1.62, -1.31, 3739.96, -4233.16)" xlink:href="#radial-gradient-2"/><radialGradient id="radial-gradient-14" cx="701.76" cy="-2653.49" r="2.61" gradientTransform="matrix(0.84, 1.15, 1.62, -1.31, 3739.96, -4233.16)" xlink:href="#radial-gradient-2"/><radialGradient id="Degradado_sin_nombre_34-2" cx="1753.02" cy="184.84" r="2.73" gradientTransform="matrix(-0.71, -0.46, -1.4, 1.83, 1538.23, 533.92)" xlink:href="#radial-gradient-2"/><radialGradient id="radial-gradient-15" cx="-815.26" cy="27.06" r="32.13" gradientTransform="translate(891.36)" xlink:href="#radial-gradient-11"/><radialGradient id="radial-gradient-16" cx="48.22" cy="33.65" r="37.37" xlink:href="#radial-gradient-12"/><radialGradient id="radial-gradient-17" cx="1754.5" cy="-1707.07" r="3.77" gradientTransform="matrix(-0.84, 1.15, -1.62, -1.31, -1214.61, -4233.16)" xlink:href="#radial-gradient-2"/><radialGradient id="radial-gradient-18" cx="1765.63" cy="-1701.48" r="2.07" gradientTransform="matrix(-0.84, 1.15, -1.62, -1.31, -1214.61, -4233.16)" xlink:href="#radial-gradient-2"/><radialGradient id="Degradado_sin_nombre_34-3" cx="-1045.58" cy="-359.03" r="2.17" gradientTransform="matrix(0.71, -0.46, 1.4, 1.83, 1291.02, 222.86)" xlink:href="#radial-gradient-2"/><radialGradient id="radial-gradient-19" cx="-153.34" cy="50.94" r="9.89" gradientTransform="translate(171.27 122.14) rotate(30)" gradientUnits="userSpaceOnUse"><stop offset="0" stop-color="#d4f6ff"/><stop offset="0.2" stop-color="#d9f7ff"/><stop offset="1" stop-color="#89c0f5"/></radialGradient><radialGradient id="radial-gradient-20" cx="1472.03" cy="-1969.53" r="1.55" gradientTransform="matrix(-1.3, 0.58, -0.75, -1.95, 464.38, -4596.66)" xlink:href="#radial-gradient-2"/><radialGradient id="radial-gradient-21" cx="-138.36" cy="42.29" r="9.89" xlink:href="#radial-gradient-19"/><radialGradient id="radial-gradient-22" cx="1460.7" cy="-1972.91" r="1.55" gradientTransform="matrix(-1.3, 0.58, -0.75, -1.95, 464.38, -4596.66)" xlink:href="#radial-gradient-2"/><radialGradient id="radial-gradient-23" cx="-123.38" cy="33.64" r="9.89" xlink:href="#radial-gradient-19"/><radialGradient id="radial-gradient-24" cx="1449.36" cy="-1976.28" r="1.55" gradientTransform="matrix(-1.3, 0.58, -0.75, -1.95, 464.38, -4596.66)" xlink:href="#radial-gradient-2"/><radialGradient id="radial-gradient-25" cx="-108.4" cy="24.99" r="9.89" xlink:href="#radial-gradient-19"/><radialGradient id="radial-gradient-26" cx="1438.02" cy="-1979.66" r="1.55" gradientTransform="matrix(-1.3, 0.58, -0.75, -1.95, 464.38, -4596.66)" xlink:href="#radial-gradient-2"/></defs><g class="cls-1"><g id="Layer_2" data-name="Layer 2"><g id="OBJECTS"><path class="cls-2" d="M13.89,37.47A23.58,23.58,0,1,0,37.47,13.89,23.58,23.58,0,0,0,13.89,37.47Z"/><path class="cls-3" d="M41.06,35c-6-4.87-8.35-12.29-5.24-16.57s10.51-3.8,16.52,1.07,8.35,12.29,5.24,16.57S47.07,39.91,41.06,35Z"/><path class="cls-4" d="M16.63,42.68c.79-2.61,4.84-1.53,9,2.41s7,9.25,6.16,11.86-4.83,1.53-9-2.41S15.84,45.28,16.63,42.68Z"/><path class="cls-5" d="M40.33,6.92a2.86,2.86,0,0,1-2.86,2.86h0a2.86,2.86,0,0,1-2.86-2.86V2.86A2.86,2.86,0,0,1,37.47,0h0a2.86,2.86,0,0,1,2.86,2.86Z"/><path class="cls-6" d="M17.89,13.84a2.86,2.86,0,0,1,0,4.05h0a2.86,2.86,0,0,1-4.05,0L11,15a2.87,2.87,0,0,1,0-4h0a2.87,2.87,0,0,1,4,0Z"/><path class="cls-7" d="M6.92,34.61a2.86,2.86,0,0,1,2.86,2.86h0a2.86,2.86,0,0,1-2.86,2.86H2.86A2.86,2.86,0,0,1,0,37.47H0a2.86,2.86,0,0,1,2.86-2.86Z"/><path class="cls-8" d="M13.84,57.05a2.86,2.86,0,0,1,4.05,0h0a2.85,2.85,0,0,1,0,4L15,64a2.85,2.85,0,0,1-4,0h0a2.85,2.85,0,0,1,0-4Z"/><path class="cls-9" d="M34.61,68a2.86,2.86,0,0,1,2.86-2.86h0A2.86,2.86,0,0,1,40.33,68v4.06a2.86,2.86,0,0,1-2.86,2.86h0a2.86,2.86,0,0,1-2.86-2.86Z"/><path class="cls-10" d="M57.05,61.09a2.85,2.85,0,0,1,0-4h0a2.85,2.85,0,0,1,4,0L64,59.92a2.86,2.86,0,0,1,0,4h0a2.86,2.86,0,0,1-4,0Z"/><path class="cls-11" d="M68,40.33a2.86,2.86,0,0,1-2.86-2.86h0A2.86,2.86,0,0,1,68,34.61h4.06a2.86,2.86,0,0,1,2.86,2.86h0a2.86,2.86,0,0,1-2.86,2.86Z"/><path class="cls-12" d="M61.09,17.89a2.86,2.86,0,0,1-4,0h0a2.86,2.86,0,0,1,0-4.05L59.92,11a2.87,2.87,0,0,1,4,0h0a2.86,2.86,0,0,1,0,4Z"/><path class="cls-13" d="M16.84,42.3A16.32,16.32,0,0,1,32.7,54.78a10.48,10.48,0,0,1,4.61-1.07,10.62,10.62,0,1,1,0,21.23H16.84a16.32,16.32,0,0,1,0-32.64Z"/><path class="cls-14" d="M16.84,42.3A16.32,16.32,0,0,1,32.7,54.78a10.48,10.48,0,0,1,4.61-1.07,10.62,10.62,0,1,1,0,21.23H16.84a16.32,16.32,0,0,1,0-32.64Z"/><path class="cls-15" d="M14.75,57.9c4.25-3.45,5.91-8.7,3.71-11.73S11,43.49,6.77,46.93s-5.9,8.7-3.7,11.72S10.5,61.34,14.75,57.9Z"/><path class="cls-16" d="M36.13,62.37c2.33-1.89,3.25-4.78,2-6.44s-4.09-1.48-6.42.42-3.25,4.78-2,6.44S33.8,64.27,36.13,62.37Z"/><path class="cls-17" d="M41.31,66.5c2.57-2.6,5.22-3.61,5.93-2.27s-.81,4.54-3.37,7.14S38.64,75,37.94,73.64,38.74,69.1,41.31,66.5Z"/><path class="cls-18" d="M71.25,23.51A12.94,12.94,0,0,0,58.68,33.4a8.42,8.42,0,1,0-3.66,16H71.25a12.94,12.94,0,0,0,0-25.88Z"/><path class="cls-19" d="M71.25,23.51A12.94,12.94,0,0,0,58.68,33.4a8.42,8.42,0,1,0-3.66,16H71.25a12.94,12.94,0,0,0,0-25.88Z"/><path class="cls-20" d="M72.91,35.88c-3.37-2.74-4.69-6.9-2.94-9.3s5.9-2.13,9.27.6,4.68,6.9,2.93,9.29S76.28,38.61,72.91,35.88Z"/><path class="cls-21" d="M56,39.43c-1.85-1.51-2.57-3.79-1.61-5.11s3.24-1.18,5.09.32,2.57,3.8,1.62,5.11S57.81,40.93,56,39.43Z"/><path class="cls-22" d="M51.85,42.7c-2-2.06-4.14-2.87-4.7-1.8s.64,3.6,2.67,5.66,4.14,2.86,4.7,1.8S53.88,44.76,51.85,42.7Z"/><path class="cls-23" d="M18.51,90.52a4.11,4.11,0,0,1-7.12-4.11c1.13-2,8.16-5.91,8.16-5.91S19.65,88.55,18.51,90.52Z"/><path class="cls-24" d="M11.51,89.84c-.64-1.67-.25-3.42.86-3.92s2.54.46,3.18,2.12.25,3.42-.87,3.91S12.15,91.5,11.51,89.84Z"/><path class="cls-25" d="M35.81,90.52a4.11,4.11,0,0,1-7.13-4.11c1.14-2,8.16-5.91,8.16-5.91S36.94,88.55,35.81,90.52Z"/><path class="cls-26" d="M28.81,89.84c-.64-1.67-.25-3.42.86-3.92s2.54.46,3.17,2.12S33.09,91.46,32,92,29.44,91.5,28.81,89.84Z"/><path class="cls-27" d="M53.1,90.52A4.11,4.11,0,0,1,46,86.41c1.14-2,8.16-5.91,8.16-5.91S54.24,88.55,53.1,90.52Z"/><path class="cls-28" d="M46.1,89.84c-.63-1.67-.25-3.42.87-3.92s2.53.46,3.17,2.12.25,3.42-.86,3.91S46.74,91.5,46.1,89.84Z"/><path class="cls-29" d="M70.4,90.52a4.11,4.11,0,0,1-7.12-4.11c1.13-2,8.15-5.91,8.15-5.91S71.53,88.55,70.4,90.52Z"/><path class="cls-30" d="M63.4,89.84c-.64-1.67-.25-3.42.86-3.92s2.54.46,3.18,2.12.25,3.42-.87,3.91S64,91.5,63.4,89.84Z"/></g></g></g></svg>