<svg xmlns="http://www.w3.org/2000/svg" xmlns:xlink="http://www.w3.org/1999/xlink" viewBox="0 0 95.19 65.53"><defs><style>.cls-1{isolation:isolate;}.cls-2{fill:url(#radial-gradient);}.cls-3,.cls-4,.cls-5{mix-blend-mode:overlay;}.cls-3{fill:url(#radial-gradient-2);}.cls-4{opacity:0.4;fill:url(#radial-gradient-3);}.cls-5{opacity:0.2;fill:url(#Degradado_sin_nombre_34);}</style><radialGradient id="radial-gradient" cx="1624.5" cy="9" r="81.35" gradientTransform="matrix(-1, 0, 0, 1, 1644.99, 0)" gradientUnits="userSpaceOnUse"><stop offset="0" stop-color="#fff"/><stop offset="0.2" stop-color="#d9f7ff"/><stop offset="1" stop-color="#89c0f5"/></radialGradient><radialGradient id="radial-gradient-2" cx="499.91" cy="-2231.72" r="9.55" gradientTransform="matrix(0.84, 1.15, 1.62, -1.31, 3213.29, -3485.75)" gradientUnits="userSpaceOnUse"><stop offset="0" stop-color="#fff"/><stop offset="0.1" stop-color="#fff" stop-opacity="0.85"/><stop offset="0.29" stop-color="#fff" stop-opacity="0.59"/><stop offset="0.47" stop-color="#fff" stop-opacity="0.38"/><stop offset="0.63" stop-color="#fff" stop-opacity="0.22"/><stop offset="0.78" stop-color="#fff" stop-opacity="0.1"/><stop offset="0.91" stop-color="#fff" stop-opacity="0.03"/><stop offset="1" stop-color="#fff" stop-opacity="0"/></radialGradient><radialGradient id="radial-gradient-3" cx="528.09" cy="-2217.57" r="5.25" xlink:href="#radial-gradient-2"/><radialGradient id="Degradado_sin_nombre_34" cx="1781.86" cy="69.13" r="5.49" gradientTransform="matrix(-0.71, -0.46, -1.4, 1.83, 1438.54, 743.58)" xlink:href="#radial-gradient-2"/></defs><g class="cls-1"><g id="Layer_2" data-name="Layer 2"><g id="OBJECTS"><path class="cls-2" d="M32.77,0A32.78,32.78,0,0,1,64.61,25a21.31,21.31,0,1,1,9.26,40.49H32.77A32.77,32.77,0,1,1,32.77,0Z"/><path class="cls-3" d="M28.57,31.31C37.1,24.39,40.43,13.85,36,7.77S21.08,2.37,12.54,9.29.69,26.75,5.11,32.83,20,38.23,28.57,31.31Z"/><path class="cls-4" d="M71.5,40.3c4.69-3.81,6.52-9.6,4.09-12.94s-8.2-3-12.9.84-6.51,9.59-4.08,12.93S66.81,44.1,71.5,40.3Z"/><path class="cls-5" d="M81.91,48.59c5.15-5.22,10.48-7.26,11.9-4.56S92.19,53.14,87,58.36s-10.49,7.26-11.9,4.56S76.75,53.8,81.91,48.59Z"/></g></g></g></svg>